<?xml version="1.0" encoding="UTF-8"?><svg id="Layer_1" xmlns="http://www.w3.org/2000/svg" viewBox="0 0 466.97 194.57"><defs><style>.cls-1{fill:#fff;}.cls-2{fill:none;stroke:#fff;stroke-linecap:round;stroke-linejoin:round;stroke-width:2px;}.cls-3{fill:#cd8439;}.cls-4{fill:#231f20;}</style></defs><rect class="cls-3" width="466.97" height="194.57"/><path class="cls-1" d="m204.72,56.13c1.2.58,2.11,1.38,2.72,2.38.62,1,.92,2.13.92,3.38,0,1.52-.38,2.73-1.12,3.65-.75.91-1.64,1.49-2.67,1.73v.13c2.82,1.01,4.22,2.88,4.22,5.61,0,1.39-.32,2.61-.96,3.66-.64,1.06-1.56,1.88-2.76,2.46-1.2.58-2.63.88-4.31.88-2.77,0-4.96-.67-6.55-2.01-1.6-1.34-2.44-3.42-2.52-6.24h6.34c-.04,1.91.78,2.87,2.47,2.87.59,0,1.07-.19,1.44-.58.36-.38.54-.88.54-1.5,0-.79-.27-1.39-.81-1.78-.54-.4-1.4-.59-2.59-.59h-1.16v-5.25h1.12c.86,0,1.57-.15,2.15-.45.57-.3.86-.9.86-1.8,0-.68-.17-1.19-.5-1.53-.33-.34-.77-.51-1.32-.51-.62,0-1.08.24-1.4.71-.32.47-.5,1.07-.54,1.8h-6.3c.09-2.55.85-4.5,2.29-5.86,1.44-1.35,3.47-2.03,6.09-2.03,1.69,0,3.14.29,4.34.87Z"/><path class="cls-1" d="m211.76,67.83c0-3.63.78-6.51,2.33-8.63s3.96-3.18,7.24-3.18,5.7,1.07,7.26,3.2c1.56,2.13,2.34,5,2.34,8.61s-.78,6.51-2.34,8.65c-1.56,2.13-3.98,3.2-7.26,3.2s-5.69-1.07-7.24-3.2-2.33-5.02-2.33-8.65Zm12.77,0c0-1.8-.21-3.2-.64-4.19s-1.28-1.49-2.56-1.49-2.13.5-2.56,1.49c-.43.99-.64,2.39-.64,4.19s.21,3.23.64,4.22c.43.99,1.28,1.49,2.56,1.49s2.13-.5,2.56-1.49.64-2.4.64-4.22Z"/><path class="cls-1" d="m249.68,71.36h-5.31v5.45h-6.24v-5.45h-5.28v-5.94h5.28v-5.45h6.24v5.45h5.31v5.94Z"/><path class="cls-1" d="m279.64,56.41l-8.25,15.94v7.42h-6.47v-7.42l-8.25-15.94h7.43l4.12,8.91,4.09-8.91h7.33Z"/><path class="cls-1" d="m299.18,71.69h-12.24c.11,2.09,1.02,3.13,2.74,3.13.64,0,1.17-.15,1.58-.46.42-.31.7-.71.86-1.22h6.86c-.24,1.3-.78,2.47-1.62,3.51-.84,1.04-1.89,1.86-3.17,2.46-1.28.59-2.67.89-4.19.89-1.85,0-3.48-.38-4.9-1.14s-2.52-1.86-3.32-3.3c-.79-1.44-1.19-3.13-1.19-5.07s.4-3.62,1.19-5.05c.79-1.43,1.9-2.53,3.33-3.28,1.43-.76,3.06-1.14,4.88-1.14s3.48.38,4.88,1.12c1.41.75,2.5,1.82,3.28,3.2.78,1.39,1.17,2.99,1.17,4.82,0,.46-.05.97-.17,1.52Zm-7.19-4.85c-.53-.48-1.19-.73-1.98-.73-.86,0-1.56.24-2.1.73-.54.48-.85,1.2-.94,2.14h5.78c.02-.95-.23-1.66-.76-2.14Z"/><path class="cls-1" d="m312.2,61.87c.96.56,1.67,1.34,2.13,2.33v-2.94h6.47v18.51h-6.47v-2.94c-.46.99-1.17,1.77-2.13,2.33-.96.56-2.08.84-3.38.84-1.47,0-2.81-.38-3.99-1.14-1.19-.76-2.12-1.86-2.8-3.3-.68-1.44-1.02-3.13-1.02-5.07s.34-3.62,1.02-5.05c.68-1.43,1.62-2.53,2.8-3.28,1.19-.76,2.52-1.14,3.99-1.14,1.3,0,2.42.28,3.38.84Zm-3.7,5.84c-.63.67-.94,1.6-.94,2.79s.31,2.15.94,2.82,1.45,1.01,2.46,1.01,1.77-.34,2.41-1.02c.64-.68.96-1.62.96-2.8s-.32-2.09-.96-2.77c-.64-.68-1.44-1.02-2.41-1.02s-1.83.33-2.46,1.01Z"/><path class="cls-1" d="m333.6,62.09c1.1-.66,2.27-.99,3.5-.99v6.93h-1.88c-1.45,0-2.54.28-3.27.84-.73.56-1.09,1.53-1.09,2.92v7.99h-6.5v-18.51h6.5v3.46c.73-1.1,1.64-1.98,2.74-2.64Z"/><path class="cls-1" d="m352.11,62.81c1.45,1.19,2.37,2.76,2.74,4.72h-6.07c-.15-.66-.47-1.15-.94-1.48-.47-.33-1.05-.5-1.73-.5-.48,0-.85.1-1.11.31s-.38.5-.38.87c0,.46.27.81.81,1.04.54.23,1.42.49,2.66.78,1.43.31,2.61.64,3.55.99.94.35,1.75.92,2.44,1.72s1.04,1.86,1.04,3.2c0,1.08-.3,2.04-.89,2.87s-1.46,1.49-2.59,1.96c-1.13.47-2.47.71-4.01.71-2.6,0-4.67-.56-6.2-1.68-1.54-1.12-2.48-2.73-2.81-4.82h6.24c.09.68.38,1.19.88,1.52s1.12.5,1.86.5c.51,0,.89-.11,1.16-.33.26-.22.4-.51.4-.86,0-.53-.28-.91-.84-1.16-.56-.24-1.46-.48-2.69-.73-1.41-.29-2.56-.6-3.46-.94-.9-.34-1.69-.89-2.36-1.65s-1.01-1.81-1.01-3.15c0-1.67.65-3.04,1.95-4.09,1.3-1.06,3.15-1.58,5.54-1.58s4.39.59,5.84,1.78Z"/><path class="cls-4" d="m218.08,106.35c-.32.55-.8.98-1.44,1.31-.64.33-1.41.5-2.32.5s-1.7-.15-2.41-.46c-.71-.31-1.28-.75-1.7-1.32-.43-.58-.67-1.25-.73-2.02h2.7c.06.52.27.95.62,1.29.35.34.82.51,1.41.51.53,0,.93-.14,1.22-.42.28-.28.42-.64.42-1.09,0-.4-.11-.72-.34-.98-.23-.26-.52-.46-.86-.62-.35-.16-.83-.34-1.44-.54-.79-.26-1.44-.53-1.94-.78s-.93-.63-1.29-1.12-.53-1.13-.53-1.93c0-1.09.39-1.95,1.18-2.58.79-.63,1.83-.95,3.12-.95s2.41.32,3.21.97c.8.65,1.25,1.51,1.36,2.59h-2.74c-.07-.46-.26-.83-.58-1.12-.31-.29-.74-.44-1.28-.44-.47,0-.85.12-1.13.37-.29.25-.43.6-.43,1.07,0,.37.11.68.33.93.22.25.5.45.85.6.34.16.81.33,1.4.52.82.29,1.48.56,1.99.81s.95.63,1.3,1.13c.36.5.54,1.16.54,1.98,0,.65-.16,1.25-.49,1.79Z"/><path class="cls-4" d="m225.76,105.86v2.18h-1.33c-1.12,0-1.97-.27-2.56-.81-.59-.54-.89-1.44-.89-2.7v-4.32h-1.39v-2.14h1.39v-2.47h2.54v2.47h2.23v2.14h-2.23v4.36c0,.48.1.82.29,1.01.19.19.52.29.97.29h.99Z"/><path class="cls-4" d="m231.6,98.47c.61-.37,1.3-.55,2.05-.55v2.72h-.74c-1.86,0-2.79.86-2.79,2.59v4.81h-2.54v-9.97h2.54v1.91c.37-.64.87-1.14,1.48-1.5Z"/><path class="cls-4" d="m242.28,98.55c.77.41,1.38,1,1.83,1.77.44.77.67,1.68.67,2.73s-.22,1.95-.67,2.72c-.44.77-1.05,1.36-1.83,1.77s-1.65.62-2.62.62-1.84-.21-2.62-.62c-.77-.41-1.38-1-1.83-1.77-.44-.77-.67-1.67-.67-2.72s.22-1.95.67-2.73c.44-.77,1.05-1.37,1.83-1.77.77-.41,1.65-.61,2.62-.61s1.84.2,2.62.61Zm-4.42,2.33c-.49.5-.74,1.22-.74,2.17s.25,1.67.74,2.17,1.09.75,1.8.75,1.31-.25,1.8-.75.74-1.22.74-2.17-.25-1.67-.74-2.17-1.09-.75-1.8-.75-1.31.25-1.8.75Z"/><path class="cls-4" d="m255.27,99.05c.68.76,1.03,1.82,1.03,3.19v5.8h-2.52v-5.51c0-.79-.2-1.41-.61-1.84-.41-.44-.97-.66-1.67-.66s-1.3.23-1.73.7c-.43.47-.65,1.14-.65,2.02v5.29h-2.54v-9.97h2.54v2c.26-.67.7-1.2,1.3-1.58s1.3-.57,2.1-.57c1.15,0,2.07.38,2.75,1.13Z"/><path class="cls-4" d="m264.59,98.53c.6.4,1.03.93,1.28,1.6v-2.07h2.52v10.01c0,.92-.18,1.75-.55,2.49s-.91,1.32-1.64,1.74c-.73.42-1.6.63-2.64.63-1.44,0-2.6-.34-3.49-1.03-.89-.68-1.43-1.61-1.62-2.79h2.5c.14.5.42.9.84,1.18.41.28.94.42,1.59.42.74,0,1.34-.22,1.8-.66.46-.44.68-1.1.68-1.99v-2.12c-.25.67-.68,1.21-1.28,1.61s-1.32.6-2.16.6-1.6-.2-2.27-.61c-.67-.41-1.2-1-1.58-1.77s-.57-1.68-.57-2.73.19-1.95.57-2.73c.38-.77.9-1.37,1.58-1.77.67-.41,1.43-.61,2.27-.61s1.56.2,2.16.59Zm-3.28,2.39c-.48.52-.72,1.22-.72,2.12s.24,1.6.72,2.11c.48.51,1.12.77,1.91.77s1.4-.26,1.9-.78c.5-.52.75-1.22.75-2.1s-.25-1.59-.75-2.12c-.5-.52-1.13-.78-1.9-.78s-1.43.26-1.91.77Z"/><path class="cls-4" d="m277.15,103.32v4.72h-2.54v-12.71h4.62c1.5,0,2.63.36,3.39,1.08s1.14,1.7,1.14,2.93-.39,2.18-1.18,2.9c-.79.72-1.9,1.08-3.36,1.08h-2.09Zm4.05-3.98c0-.64-.17-1.12-.52-1.46s-.92-.5-1.71-.5h-1.82v3.91h1.82c1.49,0,2.23-.65,2.23-1.94Z"/><path class="cls-4" d="m289.45,98.47c.61-.37,1.29-.55,2.05-.55v2.72h-.74c-1.86,0-2.79.86-2.79,2.59v4.81h-2.54v-9.97h2.54v1.91c.37-.64.86-1.14,1.48-1.5Z"/><path class="cls-4" d="m300.13,98.55c.77.41,1.38,1,1.83,1.77.44.77.67,1.68.67,2.73s-.22,1.95-.67,2.72c-.45.77-1.05,1.36-1.83,1.77-.77.41-1.65.62-2.62.62s-1.84-.21-2.62-.62-1.38-1-1.83-1.77-.67-1.67-.67-2.72.22-1.95.67-2.73c.44-.77,1.05-1.37,1.83-1.77.77-.41,1.65-.61,2.62-.61s1.85.2,2.62.61Zm-4.42,2.33c-.49.5-.74,1.22-.74,2.17s.25,1.67.74,2.17,1.09.75,1.8.75,1.31-.25,1.8-.75.74-1.22.74-2.17-.25-1.67-.74-2.17-1.09-.75-1.8-.75-1.31.25-1.8.75Z"/><path class="cls-4" d="m310.48,98.53c.59.4,1.02.93,1.29,1.6v-5.42h2.52v13.32h-2.52v-2.09c-.26.67-.69,1.21-1.29,1.61-.59.4-1.31.6-2.15.6s-1.6-.2-2.27-.61c-.67-.41-1.2-1-1.58-1.77s-.57-1.68-.57-2.73.19-1.95.57-2.73c.38-.77.9-1.37,1.58-1.77.67-.41,1.43-.61,2.27-.61s1.56.2,2.15.59Zm-3.27,2.39c-.48.52-.72,1.22-.72,2.12s.24,1.6.72,2.11c.48.51,1.12.77,1.91.77s1.4-.26,1.9-.78c.5-.52.75-1.22.75-2.1s-.25-1.59-.75-2.12c-.5-.52-1.13-.78-1.9-.78s-1.43.26-1.91.77Z"/><path class="cls-4" d="m326.13,98.06v9.97h-2.54v-2.02c-.26.67-.7,1.2-1.3,1.58s-1.3.57-2.1.57c-1.15,0-2.07-.38-2.75-1.13s-1.03-1.81-1.03-3.17v-5.8h2.52v5.51c0,.79.2,1.41.61,1.84.41.44.96.66,1.66.66.73,0,1.31-.23,1.75-.7.43-.47.65-1.14.65-2.02v-5.29h2.54Z"/><path class="cls-4" d="m336.13,98.98c.86.7,1.4,1.64,1.61,2.84h-2.68c-.11-.53-.35-.94-.74-1.25-.38-.31-.87-.46-1.46-.46-.67,0-1.23.25-1.68.75-.45.5-.68,1.23-.68,2.19s.22,1.69.68,2.19c.45.5,1.01.75,1.68.75.59,0,1.07-.15,1.46-.46.38-.31.63-.72.74-1.25h2.68c-.22,1.2-.75,2.15-1.61,2.84-.86.7-1.93,1.04-3.21,1.04-.97,0-1.84-.21-2.59-.62s-1.34-1-1.76-1.77-.63-1.67-.63-2.72.21-1.95.63-2.73c.42-.77,1.01-1.37,1.76-1.77.76-.41,1.62-.61,2.59-.61,1.28,0,2.36.35,3.21,1.04Z"/><path class="cls-4" d="m344.87,105.86v2.18h-1.33c-1.12,0-1.97-.27-2.57-.81s-.89-1.44-.89-2.7v-4.32h-1.39v-2.14h1.39v-2.47h2.54v2.47h2.23v2.14h-2.23v4.36c0,.48.1.82.29,1.01.19.19.52.29.97.29h.99Z"/><path class="cls-4" d="m217,119.72v3.29h4.5v1.94h-4.5v3.42h5.04v2.03h-7.58v-12.71h7.58v2.02h-5.04Z"/><path class="cls-4" d="m232.6,121.43c.68.76,1.03,1.82,1.03,3.19v5.8h-2.52v-5.51c0-.79-.21-1.41-.61-1.84-.41-.44-.97-.66-1.67-.66s-1.29.23-1.73.7-.65,1.14-.65,2.02v5.29h-2.54v-9.97h2.54v2c.26-.67.7-1.2,1.3-1.58.61-.38,1.3-.57,2.1-.57,1.15,0,2.07.38,2.75,1.13Z"/><path class="cls-4" d="m241.93,120.91c.6.4,1.03.93,1.28,1.6v-2.07h2.52v10.01c0,.92-.18,1.75-.55,2.49-.37.74-.91,1.32-1.64,1.74-.73.42-1.6.63-2.64.63-1.44,0-2.6-.34-3.49-1.03-.89-.68-1.43-1.61-1.62-2.79h2.5c.14.5.42.9.84,1.18.41.28.95.42,1.59.42.74,0,1.34-.22,1.8-.66.46-.44.68-1.1.68-1.99v-2.12c-.25.67-.68,1.21-1.28,1.61-.6.4-1.32.6-2.16.6s-1.6-.2-2.27-.61c-.67-.41-1.2-1-1.57-1.77-.38-.77-.57-1.68-.57-2.73s.19-1.95.57-2.73c.38-.77.9-1.37,1.57-1.77.67-.41,1.43-.61,2.27-.61s1.56.2,2.16.59Zm-3.28,2.39c-.48.52-.72,1.22-.72,2.12s.24,1.6.72,2.11c.48.51,1.12.77,1.91.77s1.4-.26,1.9-.78c.5-.52.75-1.22.75-2.1s-.25-1.59-.75-2.12c-.5-.52-1.13-.78-1.9-.78s-1.43.26-1.91.77Z"/><path class="cls-4" d="m248.17,116.58c.29-.26.67-.39,1.13-.39s.85.13,1.13.39c.29.26.43.59.43,1s-.14.72-.43.98-.67.39-1.13.39-.85-.13-1.13-.39c-.29-.26-.43-.58-.43-.98s.14-.74.43-1Zm2.39,3.86v9.97h-2.54v-9.97h2.54Z"/><path class="cls-4" d="m261.57,121.43c.68.76,1.03,1.82,1.03,3.19v5.8h-2.52v-5.51c0-.79-.2-1.41-.61-1.84-.41-.44-.97-.66-1.67-.66s-1.3.23-1.73.7c-.43.47-.65,1.14-.65,2.02v5.29h-2.54v-9.97h2.54v2c.26-.67.7-1.2,1.3-1.58s1.3-.57,2.1-.57c1.15,0,2.07.38,2.75,1.13Z"/><path class="cls-4" d="m274.11,125.91h-7.31c.04.89.28,1.54.72,1.96.44.42,1,.63,1.66.63.59,0,1.08-.14,1.47-.43.39-.29.64-.68.75-1.17h2.68c-.13.7-.41,1.32-.85,1.87-.43.55-.99.98-1.67,1.3-.68.31-1.43.47-2.26.47-.97,0-1.84-.21-2.59-.62s-1.34-1-1.76-1.77-.63-1.67-.63-2.72.21-1.95.63-2.73c.42-.77,1.01-1.37,1.76-1.77.76-.41,1.62-.61,2.59-.61s1.84.2,2.58.61c.74.41,1.31.97,1.71,1.68.4.71.6,1.53.6,2.44,0,.25-.03.54-.09.86Zm-3.1-2.97c-.46-.42-1.03-.63-1.7-.63s-1.26.21-1.73.63c-.47.42-.73,1.04-.77,1.85h4.84c.04-.82-.18-1.43-.64-1.85Z"/><path class="cls-4" d="m285.29,125.91h-7.31c.04.89.28,1.54.72,1.96.44.42,1,.63,1.66.63.59,0,1.08-.14,1.47-.43.39-.29.64-.68.75-1.17h2.68c-.13.7-.41,1.32-.85,1.87-.43.55-.99.98-1.67,1.3-.68.31-1.43.47-2.26.47-.97,0-1.84-.21-2.59-.62s-1.34-1-1.76-1.77-.63-1.67-.63-2.72.21-1.95.63-2.73c.42-.77,1.01-1.37,1.76-1.77.76-.41,1.62-.61,2.59-.61s1.84.2,2.58.61c.74.41,1.31.97,1.71,1.68.4.71.6,1.53.6,2.44,0,.25-.03.54-.09.86Zm-3.1-2.97c-.46-.42-1.03-.63-1.7-.63s-1.26.21-1.73.63c-.47.42-.73,1.04-.77,1.85h4.84c.04-.82-.18-1.43-.64-1.85Z"/><path class="cls-4" d="m291.19,120.85c.61-.37,1.3-.55,2.05-.55v2.72h-.74c-1.86,0-2.79.86-2.79,2.59v4.81h-2.54v-9.97h2.54v1.91c.37-.64.87-1.14,1.48-1.5Z"/><path class="cls-4" d="m294.79,116.58c.29-.26.67-.39,1.13-.39s.85.13,1.13.39c.29.26.43.59.43,1s-.14.72-.43.98c-.29.26-.67.39-1.13.39s-.85-.13-1.13-.39-.43-.58-.43-.98.14-.74.43-1Zm2.39,3.86v9.97h-2.54v-9.97h2.54Z"/><path class="cls-4" d="m308.18,121.43c.68.76,1.03,1.82,1.03,3.19v5.8h-2.52v-5.51c0-.79-.21-1.41-.61-1.84-.41-.44-.97-.66-1.67-.66s-1.29.23-1.73.7-.65,1.14-.65,2.02v5.29h-2.54v-9.97h2.54v2c.26-.67.7-1.2,1.3-1.58.61-.38,1.3-.57,2.1-.57,1.15,0,2.07.38,2.75,1.13Z"/><path class="cls-4" d="m317.51,120.91c.6.4,1.03.93,1.28,1.6v-2.07h2.52v10.01c0,.92-.18,1.75-.55,2.49-.37.74-.91,1.32-1.64,1.74-.73.42-1.6.63-2.64.63-1.44,0-2.6-.34-3.49-1.03-.89-.68-1.43-1.61-1.62-2.79h2.5c.14.5.42.9.84,1.18.41.28.95.42,1.59.42.74,0,1.34-.22,1.8-.66.46-.44.68-1.1.68-1.99v-2.12c-.25.67-.68,1.21-1.28,1.61-.6.4-1.32.6-2.16.6s-1.6-.2-2.27-.61c-.67-.41-1.2-1-1.57-1.77-.38-.77-.57-1.68-.57-2.73s.19-1.95.57-2.73c.38-.77.9-1.37,1.57-1.77.67-.41,1.43-.61,2.27-.61s1.56.2,2.16.59Zm-3.28,2.39c-.48.52-.72,1.22-.72,2.12s.24,1.6.72,2.11c.48.51,1.12.77,1.91.77s1.4-.26,1.9-.78c.5-.52.75-1.22.75-2.1s-.25-1.59-.75-2.12c-.5-.52-1.13-.78-1.9-.78s-1.43.26-1.91.77Z"/><path class="cls-4" d="m336.16,130.41l-1.94-2.27c-.1.24-.18.43-.25.56-.22.55-.59,1-1.13,1.33s-1.17.5-1.89.5c-.8,0-1.51-.17-2.12-.5s-1.07-.79-1.4-1.38c-.32-.58-.49-1.25-.49-1.99s.14-1.37.42-1.93c.28-.55.67-.98,1.15-1.29.49-.31,1.03-.47,1.63-.5l-.22-.32c-.24-.34-.43-.67-.56-1s-.2-.7-.2-1.11c0-.52.13-1,.41-1.45.27-.45.67-.81,1.21-1.09.53-.28,1.17-.41,1.92-.41,1.07,0,1.89.24,2.48.72.58.48.96,1.1,1.12,1.85.12.36.18.74.18,1.15l-.02.34h-2.36c0-.3-.01-.5-.04-.61-.01-.43-.13-.76-.36-1-.23-.23-.55-.35-.96-.35-.37,0-.67.11-.88.32-.22.22-.32.48-.32.79,0,.28.05.52.16.72.11.2.29.46.54.76l6.46,8.14h-2.56Zm-3.93-2.47c.33-.32.5-.73.5-1.23s-.19-.97-.57-1.31c-.38-.35-.83-.52-1.34-.52s-.9.15-1.21.45c-.32.3-.48.73-.48,1.28s.18.99.53,1.32c.35.33.79.5,1.3.5s.94-.16,1.27-.48Z"/><path class="cls-4" d="m172.72,142.1v3.29h4.5v1.94h-4.5v3.42h5.04v2.03h-7.58v-12.71h7.58v2.02h-5.04Z"/><path class="cls-4" d="m188.33,143.81c.68.76,1.03,1.82,1.03,3.19v5.8h-2.52v-5.51c0-.79-.21-1.41-.61-1.84-.41-.44-.97-.66-1.67-.66s-1.29.23-1.73.7-.65,1.14-.65,2.02v5.29h-2.54v-9.97h2.54v2c.26-.67.7-1.2,1.3-1.58.61-.38,1.3-.57,2.1-.57,1.15,0,2.07.38,2.75,1.13Z"/><path class="cls-4" d="m196.91,150.61v2.18h-1.33c-1.12,0-1.97-.27-2.57-.81s-.89-1.44-.89-2.7v-4.32h-1.39v-2.14h1.39v-2.47h2.54v2.47h2.23v2.14h-2.23v4.36c0,.48.1.82.29,1.01.19.19.52.29.97.29h.99Z"/><path class="cls-4" d="m208.02,148.29h-7.31c.04.89.28,1.54.72,1.96.44.42,1,.63,1.66.63.59,0,1.08-.14,1.47-.43.39-.29.64-.68.75-1.17h2.68c-.13.7-.41,1.32-.85,1.87-.43.55-.99.98-1.66,1.3-.68.31-1.43.47-2.26.47-.97,0-1.84-.21-2.59-.62s-1.34-1-1.76-1.77-.63-1.67-.63-2.72.21-1.95.63-2.73c.42-.77,1.01-1.37,1.76-1.77.76-.41,1.62-.61,2.59-.61s1.85.2,2.58.61c.74.41,1.31.97,1.71,1.68s.6,1.53.6,2.44c0,.25-.03.54-.09.86Zm-3.11-2.97c-.46-.42-1.03-.63-1.7-.63s-1.26.21-1.73.63c-.47.42-.73,1.04-.77,1.85h4.84c.04-.82-.18-1.43-.64-1.85Z"/><path class="cls-4" d="m213.92,143.22c.61-.37,1.3-.55,2.05-.55v2.72h-.74c-1.86,0-2.79.86-2.79,2.59v4.81h-2.54v-9.97h2.54v1.91c.37-.64.86-1.14,1.48-1.5Z"/><path class="cls-4" d="m225.6,143.3c.67.41,1.2,1,1.58,1.77.38.77.57,1.68.57,2.73s-.19,1.95-.57,2.73-.9,1.37-1.58,1.77c-.67.41-1.43.61-2.27.61s-1.56-.2-2.15-.6-1.02-.94-1.27-1.61v6.84h-2.54v-14.72h2.54v2.07c.25-.67.68-1.21,1.27-1.6.59-.4,1.31-.59,2.15-.59s1.6.2,2.27.61Zm-4.96,2.38c-.5.52-.75,1.23-.75,2.12s.25,1.57.75,2.1c.5.52,1.13.78,1.9.78s1.43-.25,1.91-.77c.48-.51.72-1.21.72-2.11s-.24-1.61-.72-2.12c-.48-.52-1.12-.77-1.91-.77s-1.4.26-1.9.78Z"/><path class="cls-4" d="m233.56,143.22c.61-.37,1.3-.55,2.05-.55v2.72h-.74c-1.86,0-2.79.86-2.79,2.59v4.81h-2.54v-9.97h2.54v1.91c.37-.64.87-1.14,1.48-1.5Z"/><path class="cls-4" d="m237.16,138.96c.29-.26.67-.39,1.13-.39s.85.13,1.13.39c.29.26.43.59.43,1s-.14.72-.43.98c-.29.26-.67.39-1.13.39s-.85-.13-1.13-.39-.43-.58-.43-.98.14-.74.43-1Zm2.39,3.86v9.97h-2.54v-9.97h2.54Z"/><path class="cls-4" d="m248.21,143.61c.73.61,1.19,1.43,1.37,2.45h-2.38c-.1-.48-.31-.86-.65-1.15-.34-.29-.77-.43-1.31-.43-.43,0-.77.1-1.01.31s-.36.48-.36.83c0,.28.1.5.29.67.19.17.43.3.72.4.29.1.7.21,1.24.34.76.17,1.37.34,1.84.53.47.19.88.48,1.22.88.34.4.51.95.51,1.63,0,.85-.33,1.54-1,2.07-.67.53-1.56.79-2.69.79-1.29,0-2.33-.29-3.11-.87-.78-.58-1.25-1.41-1.42-2.49h2.43c.06.49.28.88.65,1.16.37.28.86.42,1.46.42.43,0,.76-.11.99-.32s.34-.48.34-.82c0-.29-.1-.52-.3-.7-.2-.18-.44-.32-.74-.41-.29-.1-.71-.21-1.25-.34-.74-.17-1.35-.34-1.81-.51s-.86-.45-1.19-.84-.49-.91-.49-1.58c0-.86.33-1.57.99-2.11.66-.54,1.57-.81,2.74-.81s2.18.31,2.92.92Z"/><path class="cls-4" d="m260.88,148.29h-7.31c.04.89.28,1.54.72,1.96.44.42,1,.63,1.66.63.59,0,1.08-.14,1.47-.43s.64-.68.75-1.17h2.68c-.13.7-.41,1.32-.85,1.87s-.99.98-1.67,1.3c-.68.31-1.43.47-2.26.47-.97,0-1.84-.21-2.59-.62s-1.34-1-1.76-1.77-.63-1.67-.63-2.72.21-1.95.63-2.73c.42-.77,1.01-1.37,1.76-1.77.76-.41,1.62-.61,2.59-.61s1.84.2,2.58.61c.74.41,1.31.97,1.71,1.68s.6,1.53.6,2.44c0,.25-.03.54-.09.86Zm-3.1-2.97c-.46-.42-1.03-.63-1.7-.63s-1.26.21-1.73.63c-.47.42-.73,1.04-.77,1.85h4.84c.04-.82-.18-1.43-.64-1.85Z"/><path class="cls-4" d="m269.23,140.08v12.71h-2.54v-12.71h2.54Z"/><path class="cls-4" d="m280.18,140.08v2.02h-3.51v10.69h-2.54v-10.69h-3.49v-2.02h9.54Z"/><path class="cls-4" d="m288.04,142.1v3.29h4.5v1.94h-4.5v3.42h5.04v2.03h-7.58v-12.71h7.58v2.02h-5.04Z"/><path class="cls-4" d="m301.02,152.79l-2.27-3.2-1.91,3.2h-2.79l3.29-5.2-3.37-4.77h2.84l2.21,3.15,1.91-3.15h2.79l-3.35,5.06,3.47,4.91h-2.84Z"/><path class="cls-4" d="m313.39,143.3c.67.41,1.2,1,1.57,1.77.38.77.57,1.68.57,2.73s-.19,1.95-.57,2.73c-.38.77-.9,1.37-1.57,1.77-.67.41-1.43.61-2.27.61s-1.56-.2-2.15-.6c-.59-.4-1.02-.94-1.27-1.61v6.84h-2.54v-14.72h2.54v2.07c.25-.67.67-1.21,1.27-1.6.59-.4,1.31-.59,2.15-.59s1.6.2,2.27.61Zm-4.96,2.38c-.5.52-.75,1.23-.75,2.12s.25,1.57.75,2.1c.5.52,1.13.78,1.9.78s1.43-.25,1.91-.77c.48-.51.72-1.21.72-2.11s-.24-1.61-.72-2.12c-.48-.52-1.12-.77-1.91-.77s-1.4.26-1.9.78Z"/><path class="cls-4" d="m326.62,148.29h-7.31c.04.89.28,1.54.72,1.96.44.42,1,.63,1.66.63.59,0,1.08-.14,1.47-.43s.64-.68.75-1.17h2.68c-.13.7-.41,1.32-.85,1.87s-.99.98-1.67,1.3c-.68.31-1.43.47-2.26.47-.97,0-1.84-.21-2.59-.62s-1.34-1-1.76-1.77-.63-1.67-.63-2.72.21-1.95.63-2.73c.42-.77,1.01-1.37,1.76-1.77.76-.41,1.62-.61,2.59-.61s1.84.2,2.58.61c.74.41,1.31.97,1.71,1.68s.6,1.53.6,2.44c0,.25-.03.54-.09.86Zm-3.1-2.97c-.46-.42-1.03-.63-1.7-.63s-1.26.21-1.73.63c-.47.42-.73,1.04-.77,1.85h4.84c.04-.82-.18-1.43-.64-1.85Z"/><path class="cls-4" d="m332.52,143.22c.61-.37,1.3-.55,2.05-.55v2.72h-.74c-1.86,0-2.79.86-2.79,2.59v4.81h-2.54v-9.97h2.54v1.91c.37-.64.86-1.14,1.48-1.5Z"/><path class="cls-4" d="m336.12,138.96c.29-.26.67-.39,1.13-.39s.85.13,1.13.39c.29.26.43.59.43,1s-.14.72-.43.98-.67.39-1.13.39-.85-.13-1.13-.39c-.29-.26-.43-.58-.43-.98s.14-.74.43-1Zm2.39,3.86v9.97h-2.54v-9.97h2.54Z"/><path class="cls-4" d="m350.1,148.29h-7.31c.04.89.28,1.54.72,1.96.44.42,1,.63,1.66.63.59,0,1.08-.14,1.47-.43.39-.29.64-.68.75-1.17h2.68c-.13.7-.41,1.32-.85,1.87s-.99.98-1.67,1.3c-.68.31-1.43.47-2.26.47-.97,0-1.84-.21-2.59-.62s-1.34-1-1.76-1.77-.63-1.67-.63-2.72.21-1.95.63-2.73c.42-.77,1.01-1.37,1.76-1.77.76-.41,1.62-.61,2.59-.61s1.85.2,2.58.61c.74.41,1.31.97,1.71,1.68.4.71.6,1.53.6,2.44,0,.25-.03.54-.09.86Zm-3.11-2.97c-.46-.42-1.03-.63-1.7-.63s-1.26.21-1.73.63-.73,1.04-.77,1.85h4.84c.04-.82-.18-1.43-.64-1.85Z"/><path class="cls-4" d="m360.69,143.81c.68.76,1.03,1.82,1.03,3.19v5.8h-2.52v-5.51c0-.79-.2-1.41-.61-1.84-.41-.44-.97-.66-1.67-.66s-1.3.23-1.73.7c-.43.47-.65,1.14-.65,2.02v5.29h-2.54v-9.97h2.54v2c.26-.67.7-1.2,1.3-1.58s1.3-.57,2.1-.57c1.15,0,2.07.38,2.75,1.13Z"/><path class="cls-4" d="m371.64,143.73c.86.7,1.39,1.64,1.61,2.84h-2.68c-.11-.53-.35-.94-.74-1.25-.38-.31-.87-.46-1.46-.46-.67,0-1.23.25-1.68.75-.45.5-.67,1.23-.67,2.19s.22,1.69.67,2.19c.45.5,1.01.75,1.68.75.59,0,1.07-.15,1.46-.46s.63-.72.74-1.25h2.68c-.22,1.2-.75,2.15-1.61,2.84-.86.7-1.93,1.04-3.21,1.04-.97,0-1.84-.21-2.59-.62s-1.34-1-1.76-1.77-.63-1.67-.63-2.72.21-1.95.63-2.73c.42-.77,1.01-1.37,1.76-1.77.76-.41,1.62-.61,2.59-.61,1.28,0,2.35.35,3.21,1.04Z"/><path class="cls-4" d="m384.34,148.29h-7.31c.04.89.28,1.54.72,1.96.44.42,1,.63,1.66.63.59,0,1.08-.14,1.47-.43s.64-.68.75-1.17h2.68c-.13.7-.41,1.32-.85,1.87s-.99.98-1.67,1.3c-.68.31-1.43.47-2.26.47-.97,0-1.84-.21-2.59-.62s-1.34-1-1.76-1.77-.63-1.67-.63-2.72.21-1.95.63-2.73c.42-.77,1.01-1.37,1.76-1.77.76-.41,1.62-.61,2.59-.61s1.84.2,2.58.61c.74.41,1.31.97,1.71,1.68s.6,1.53.6,2.44c0,.25-.03.54-.09.86Zm-3.1-2.97c-.46-.42-1.03-.63-1.7-.63s-1.26.21-1.73.63c-.47.42-.73,1.04-.77,1.85h4.84c.04-.82-.18-1.43-.64-1.85Z"/><line class="cls-2" x1="101.86" y1="72.3" x2="123" y2="72.3"/><rect class="cls-2" x="88.4" y="64.61" width="5.77" height="13.46"/><rect class="cls-2" x="128.77" y="64.61" width="5.77" height="13.46"/><path class="cls-1" d="m144.15,88.67h-65.36v41.29h65.36v-41.29s0,0,0,0Zm-44.94,32.64h-12v-9.6h12v9.6Zm0-15.38h-12v-9.6h12v9.6Zm18.66,15.38h-12v-9.6h12v9.6Zm0-15.38h-12v-9.6h12v9.6Zm17.87,15.38h-12v-9.6h12v9.6Zm0-15.38h-12v-9.6h12v9.6Z"/><polygon class="cls-1" points="144.15 86.67 144.15 86.67 144.15 78.06 140.3 78.06 82.63 78.06 78.79 78.06 78.79 86.67 144.15 86.67"/></svg>