<?xml version="1.0" encoding="UTF-8"?><svg id="Capa_1" xmlns="http://www.w3.org/2000/svg" viewBox="0 0 312.08 312.08"><defs><style>.cls-1{fill:none;stroke:#f58220;stroke-linecap:round;stroke-linejoin:round;stroke-width:8px;}</style></defs><path class="cls-1" d="M271.33,209.84v32.36c0,7.6-6.16,13.75-13.75,13.75H23.75c-7.6,0-13.75-6.16-13.75-13.75V62.18c0-7.6,6.16-13.75,13.75-13.75H171.41"/><line class="cls-1" x1="271.33" y1="217.53" x2="10" y2="217.53"/><line class="cls-1" x1="194.47" y1="302.08" x2="86.86" y2="302.08"/><path class="cls-1" d="M108.04,299.35l13.68-9.65c2.21-1.56,3.61-4.93,3.57-8.6l-.03-25.14"/><path class="cls-1" d="M156.04,255.96l-.02,25.18c-.02,3.66,1.38,6.99,3.57,8.55l13.7,9.67"/><rect class="cls-1" x="194.47" y="10" width="107.61" height="176.79" rx="8.24" ry="8.24"/><line class="cls-1" x1="294.39" y1="140.67" x2="194.47" y2="140.67"/><line class="cls-1" x1="294.39" y1="56.11" x2="194.47" y2="56.11"/><line class="cls-1" x1="255.96" y1="33.06" x2="240.59" y2="33.06"/><line class="cls-1" x1="263.65" y1="163.72" x2="232.9" y2="163.72"/><path class="cls-1" d="M162.79,88.57c-4.86,.01-9.43-2.21-12.34-6.11l-1.37-1.84-14.15,5.87,.33,2.27c.71,4.81-.95,9.62-4.39,13.05l-.1,.1c-3.42,3.43-8.22,5.07-13.01,4.37l-2.27-.33-5.85,14.15,1.84,1.37c3.88,2.89,6.12,7.44,6.12,12.28v.15c.01,4.86-2.21,9.43-6.11,12.34l-1.84,1.37,5.87,14.15,2.27-.33c4.81-.71,9.62,.95,13.05,4.39l.1,.1c3.43,3.42,5.07,8.22,4.37,13.01l-.33,2.27,14.15,5.85,1.37-1.84c2.89-3.88,7.44-6.12,12.28-6.12h.93"/><path class="cls-1" d="M166.61,151.26c-19.11,1.5-28.31-20.68-13.75-33.14,2.4-2.06,5.46-3.32,8.61-3.57,1.25-.1,2.46-.1,3.62,0"/><line class="cls-1" x1="263.65" y1="79.17" x2="279.02" y2="79.17"/><line class="cls-1" x1="263.65" y1="102.23" x2="279.02" y2="102.23"/><rect class="cls-1" x="217.53" y="79.17" width="23.06" height="23.06"/><line class="cls-1" x1="33.06" y1="163.72" x2="79.17" y2="163.72"/><line class="cls-1" x1="33.06" y1="186.78" x2="79.17" y2="186.78"/><rect class="cls-1" x="33.06" y="117.61" width="23.06" height="23.06"/></svg>