<?xml version="1.0" encoding="UTF-8"?>
<svg id="Layer_1" data-name="Layer 1" xmlns="http://www.w3.org/2000/svg" viewBox="0 0 466.97 194.57">
  <defs>
    <style>
      .cls-1 {
        fill: none;
      }

      .cls-1, .cls-2, .cls-3, .cls-4 {
        stroke-width: 0px;
      }

      .cls-2 {
        fill: #fff;
      }

      .cls-3 {
        fill: #231f20;
      }

      .cls-4 {
        fill: #e48f1f;
      }
    </style>
  </defs>
  <rect class="cls-4" width="466.97" height="194.57"/>
  <g>
    <g>
      <rect class="cls-1" x="166.61" y="95.05" width="218.68" height="35.74"/>
      <path class="cls-3" d="M185.92,95.81v12.56h-2.52v-5.35h-5.38v5.35h-2.52v-12.56h2.52v5.17h5.38v-5.17h2.52Z"/>
      <path class="cls-3" d="M188.57,96.79c-.29-.28-.44-.63-.44-1.05s.15-.77.44-1.05c.29-.28.66-.42,1.11-.42s.81.14,1.11.42c.29.28.44.63.44,1.05s-.15.77-.44,1.05c-.29.28-.66.42-1.11.42s-.81-.14-1.11-.42ZM190.92,98.4v9.97h-2.52v-9.97h2.52Z"/>
      <path class="cls-3" d="M199.27,98.68c.56.29,1.01.67,1.33,1.14v-1.42h2.54v10.04c0,.92-.19,1.75-.56,2.48s-.93,1.3-1.67,1.73-1.64.64-2.7.64c-1.42,0-2.58-.33-3.48-.99-.91-.66-1.42-1.56-1.54-2.7h2.5c.13.46.42.82.85,1.09s.97.4,1.59.4c.73,0,1.33-.22,1.78-.66s.68-1.1.68-1.99v-1.55c-.32.47-.77.86-1.34,1.17-.57.31-1.22.47-1.95.47-.84,0-1.61-.22-2.3-.65-.7-.43-1.25-1.04-1.65-1.83s-.6-1.69-.6-2.71.2-1.9.6-2.68c.4-.78.95-1.38,1.64-1.8s1.46-.63,2.31-.63c.75,0,1.41.16,1.97.45ZM200.24,101.81c-.24-.44-.56-.77-.97-1.01-.41-.23-.85-.35-1.31-.35s-.9.11-1.3.34c-.4.23-.72.56-.96,1-.25.44-.37.96-.37,1.56s.12,1.12.37,1.58c.25.45.57.79.97,1.03s.83.36,1.29.36.91-.12,1.31-.35c.41-.23.73-.57.97-1.01s.36-.96.36-1.57c0-.62-.12-1.14-.36-1.58Z"/>
      <path class="cls-3" d="M213.24,98.75c.59.33,1.05.82,1.38,1.46s.5,1.41.5,2.31v5.85h-2.52v-5.51c0-.79-.2-1.4-.59-1.83-.4-.43-.94-.64-1.62-.64s-1.25.21-1.65.64-.6,1.04-.6,1.83v5.51h-2.52v-13.32h2.52v4.59c.32-.43.76-.77,1.3-1.02.54-.25,1.14-.37,1.8-.37.74.01,1.41.17,2,.5Z"/>
      <path class="cls-3" d="M220.03,95.05v13.32h-2.52v-13.32h2.52Z"/>
      <path class="cls-3" d="M232.05,98.4l-6.17,14.69h-2.68l2.16-4.97-4-9.72h2.83l2.57,6.97,2.61-6.97h2.68Z"/>
      <path class="cls-3" d="M239.65,108.05c-.7-.3-1.26-.73-1.67-1.3-.41-.56-.62-1.23-.63-2h2.7c.04.52.22.92.55,1.22s.78.45,1.36.45,1.05-.14,1.39-.42.5-.65.5-1.11c0-.37-.11-.68-.34-.92s-.51-.43-.85-.57c-.34-.14-.81-.29-1.41-.46-.82-.24-1.48-.48-1.99-.71s-.95-.59-1.31-1.06-.55-1.11-.55-1.9c0-.74.19-1.39.56-1.94s.89-.97,1.57-1.27c.67-.29,1.44-.44,2.3-.44,1.3,0,2.35.31,3.16.95.81.63,1.26,1.51,1.34,2.64h-2.77c-.02-.43-.21-.79-.55-1.07s-.79-.42-1.36-.42c-.49,0-.89.13-1.18.38s-.44.62-.44,1.1c0,.34.11.62.33.84.22.22.5.4.83.54s.79.3,1.4.48c.82.24,1.48.48,2,.72s.96.6,1.33,1.08.56,1.11.56,1.89c0,.67-.17,1.3-.52,1.87-.35.58-.86,1.04-1.53,1.38s-1.47.51-2.39.51c-.89-.01-1.68-.16-2.39-.46Z"/>
      <path class="cls-3" d="M254.55,108.37l-3.38-4.25v4.25h-2.52v-13.32h2.52v7.58l3.35-4.23h3.28l-4.39,5,4.43,4.97h-3.29Z"/>
      <path class="cls-3" d="M259.33,96.79c-.29-.28-.44-.63-.44-1.05s.15-.77.44-1.05c.29-.28.66-.42,1.11-.42s.81.14,1.11.42c.29.28.44.63.44,1.05s-.15.77-.44,1.05c-.29.28-.66.42-1.11.42s-.82-.14-1.11-.42ZM261.68,98.4v9.97h-2.52v-9.97h2.52Z"/>
      <path class="cls-3" d="M266.68,95.05v13.32h-2.52v-13.32h2.52Z"/>
      <path class="cls-3" d="M271.69,95.05v13.32h-2.52v-13.32h2.52Z"/>
      <path class="cls-3" d="M283.37,104.14h-7.29c.06.72.31,1.28.76,1.69.44.41.99.61,1.64.61.94,0,1.6-.4,2-1.21h2.72c-.29.96-.84,1.75-1.66,2.37s-1.82.93-3.01.93c-.96,0-1.82-.21-2.58-.64-.76-.43-1.36-1.03-1.78-1.81-.43-.78-.64-1.68-.64-2.7s.21-1.94.63-2.72,1.01-1.38,1.76-1.8c.76-.42,1.63-.63,2.61-.63s1.8.2,2.55.61,1.33.99,1.75,1.74c.41.75.62,1.61.62,2.58,0,.37-.03.69-.08.98ZM280.83,102.45c-.01-.65-.25-1.17-.7-1.56-.46-.39-1.01-.58-1.67-.58-.62,0-1.15.19-1.57.57-.43.38-.69.9-.78,1.58h4.72Z"/>
      <path class="cls-3" d="M285.23,100.67c.4-.78.95-1.38,1.65-1.8.7-.42,1.47-.63,2.32-.63.65,0,1.27.14,1.85.42.59.28,1.06.66,1.4,1.12v-4.73h2.56v13.32h-2.56v-1.48c-.31.49-.75.89-1.31,1.19s-1.22.45-1.96.45c-.84,0-1.61-.22-2.3-.65-.7-.43-1.25-1.04-1.65-1.83s-.6-1.69-.6-2.71c0-1,.2-1.89.6-2.67ZM292.12,101.81c-.24-.44-.56-.77-.97-1.01-.41-.23-.85-.35-1.31-.35s-.9.11-1.3.34c-.4.23-.72.56-.96,1-.25.44-.37.96-.37,1.56s.12,1.12.37,1.58c.25.45.57.79.97,1.03s.83.36,1.29.36.91-.12,1.31-.35c.41-.23.73-.57.97-1.01s.36-.96.36-1.57-.12-1.14-.36-1.58Z"/>
      <path class="cls-3" d="M300.23,105.73l-2.11,5.06h-1.62l1.17-5.06h2.56Z"/>
      <path class="cls-3" d="M314.21,96.58c1,.52,1.78,1.25,2.32,2.21.55.95.82,2.06.82,3.32s-.27,2.36-.82,3.3c-.55.94-1.32,1.67-2.32,2.19-1,.52-2.16.77-3.48.77h-4.39v-12.56h4.39c1.32,0,2.48.26,3.48.77ZM313.7,105.15c.72-.72,1.08-1.73,1.08-3.04s-.36-2.33-1.08-3.07-1.74-1.11-3.06-1.11h-1.78v8.3h1.78c1.32,0,2.34-.36,3.06-1.08Z"/>
      <path class="cls-3" d="M319.41,96.79c-.29-.28-.44-.63-.44-1.05s.15-.77.44-1.05c.29-.28.66-.42,1.11-.42s.81.14,1.11.42c.29.28.44.63.44,1.05s-.15.77-.44,1.05c-.29.28-.66.42-1.11.42s-.81-.14-1.11-.42ZM321.76,98.4v9.97h-2.52v-9.97h2.52Z"/>
      <path class="cls-3" d="M328.4,106.05l2.52-7.65h2.68l-3.69,9.97h-3.06l-3.67-9.97h2.7l2.52,7.65Z"/>
      <path class="cls-3" d="M344.23,104.14h-7.29c.06.72.31,1.28.76,1.69.44.41.99.61,1.64.61.94,0,1.6-.4,2-1.21h2.72c-.29.96-.84,1.75-1.66,2.37s-1.82.93-3.01.93c-.96,0-1.82-.21-2.58-.64-.76-.43-1.36-1.03-1.78-1.81-.43-.78-.64-1.68-.64-2.7s.21-1.94.63-2.72,1.01-1.38,1.76-1.8c.76-.42,1.63-.63,2.61-.63s1.8.2,2.55.61,1.33.99,1.75,1.74c.41.75.62,1.61.62,2.58-.01.37-.04.69-.08.98ZM341.69,102.45c-.01-.65-.25-1.17-.7-1.56-.46-.39-1.01-.58-1.67-.58-.62,0-1.15.19-1.57.57-.43.38-.69.9-.78,1.58h4.72Z"/>
      <path class="cls-3" d="M349.92,98.71c.52-.3,1.12-.45,1.79-.45v2.65h-.67c-.79,0-1.39.19-1.79.56-.4.37-.6,1.02-.6,1.94v4.97h-2.52v-9.98h2.52v1.55c.33-.53.75-.94,1.27-1.24Z"/>
      <path class="cls-3" d="M355.03,108.09c-.65-.29-1.16-.69-1.54-1.2-.38-.5-.59-1.06-.62-1.67h2.54c.05.38.24.7.57.95.33.25.74.38,1.23.38s.85-.1,1.12-.29.4-.44.4-.74c0-.32-.17-.57-.49-.73-.33-.16-.85-.34-1.58-.53-.74-.18-1.35-.37-1.83-.56-.47-.19-.88-.49-1.22-.88-.34-.4-.51-.93-.51-1.6,0-.55.16-1.06.48-1.51.32-.46.77-.82,1.37-1.08.59-.26,1.29-.4,2.1-.4,1.19,0,2.14.3,2.84.89.71.59,1.1,1.4,1.17,2.4h-2.41c-.04-.4-.2-.71-.5-.95-.29-.23-.69-.35-1.18-.35-.46,0-.81.08-1.05.25s-.37.4-.37.7c0,.34.17.59.5.77.34.17.86.35,1.57.53.72.18,1.31.37,1.78.56.47.19.87.49,1.22.89.34.4.52.93.53,1.59,0,.58-.16,1.09-.48,1.55s-.77.81-1.37,1.07c-.59.26-1.29.39-2.08.39-.82.01-1.55-.13-2.19-.43Z"/>
      <path class="cls-3" d="M372.41,104.14h-7.29c.06.72.31,1.28.76,1.69.44.41.99.61,1.64.61.94,0,1.6-.4,2-1.21h2.72c-.29.96-.84,1.75-1.66,2.37s-1.82.93-3.01.93c-.96,0-1.82-.21-2.58-.64-.76-.43-1.36-1.03-1.78-1.81-.43-.78-.64-1.68-.64-2.7s.21-1.94.63-2.72,1.01-1.38,1.76-1.8c.76-.42,1.63-.63,2.61-.63s1.8.2,2.55.61,1.33.99,1.75,1.74c.41.75.62,1.61.62,2.58,0,.37-.03.69-.08.98ZM369.88,102.45c-.01-.65-.25-1.17-.7-1.56-.46-.39-1.01-.58-1.67-.58-.62,0-1.15.19-1.57.57-.43.38-.69.9-.78,1.58h4.72Z"/>
      <path class="cls-3" d="M377.08,105.73l-2.11,5.06h-1.62l1.17-5.06h2.56Z"/>
      <path class="cls-3" d="M193.28,130.75l-1.37-1.35c-1.16,1.04-2.59,1.57-4.27,1.57-.92,0-1.74-.16-2.44-.48-.7-.32-1.25-.77-1.63-1.35s-.58-1.26-.58-2.03c0-.83.23-1.57.7-2.23s1.16-1.19,2.07-1.6c-.32-.4-.56-.78-.7-1.14s-.22-.76-.22-1.18c0-.58.15-1.09.45-1.56.3-.46.73-.82,1.29-1.09.56-.26,1.21-.4,1.95-.4s1.4.14,1.94.43.94.67,1.21,1.15c.26.48.38,1.01.34,1.6h-2.45c0-.4-.08-.7-.29-.91-.2-.21-.48-.31-.83-.31s-.62.1-.84.3c-.22.2-.33.45-.33.77,0,.3.09.6.27.89.18.29.47.66.88,1.09l3.17,3.13s.04-.05.05-.07c0-.02.02-.05.04-.07l1.03-1.71h2.63l-1.26,2.21c-.24.47-.5.91-.77,1.33l3.04,3.01h-3.08ZM190.33,127.83l-3.1-3.06c-1.16.52-1.75,1.25-1.75,2.2,0,.54.2.99.61,1.36.41.37.95.55,1.62.55.99,0,1.86-.35,2.62-1.05Z"/>
      <path class="cls-3" d="M204.42,120.22v3.15h4.23v2h-4.23v3.33h4.77v2.05h-7.29v-12.58h7.29v2.05h-4.77Z"/>
      <path class="cls-3" d="M216.98,130.75l-2.05-3.1-1.82,3.1h-2.7l3.26-5-3.29-4.97h2.84l2.03,3.08,1.84-3.08h2.7l-3.28,4.97,3.31,5h-2.84Z"/>
      <path class="cls-3" d="M225.06,121.07c.57-.31,1.22-.46,1.95-.46.85,0,1.62.21,2.31.63s1.24,1.02,1.64,1.79.6,1.67.6,2.69-.2,1.92-.6,2.71c-.4.79-.95,1.4-1.64,1.83-.69.43-1.46.65-2.31.65-.73,0-1.38-.15-1.94-.45s-1.01-.68-1.36-1.13v6.17h-2.52v-14.72h2.52v1.44c.33-.46.78-.84,1.35-1.15ZM228.62,124.17c-.25-.44-.57-.77-.97-1s-.84-.34-1.3-.34-.89.12-1.29.35c-.4.23-.73.57-.97,1.02s-.37.97-.37,1.57.12,1.12.37,1.57.57.78.97,1.02c.4.23.83.35,1.29.35s.9-.12,1.3-.36c.4-.24.73-.58.97-1.03.25-.44.37-.97.37-1.58,0-.61-.12-1.13-.37-1.57Z"/>
      <path class="cls-3" d="M242.6,126.52h-7.29c.06.72.31,1.28.76,1.69.44.41.99.61,1.64.61.94,0,1.6-.4,2-1.21h2.72c-.29.96-.84,1.75-1.66,2.37-.82.62-1.82.93-3.01.93-.96,0-1.82-.21-2.58-.64s-1.36-1.03-1.78-1.81c-.43-.78-.64-1.68-.64-2.7s.21-1.94.63-2.72,1.01-1.38,1.76-1.8c.76-.42,1.63-.63,2.61-.63s1.8.2,2.55.61,1.33.99,1.75,1.74c.41.75.62,1.61.62,2.58-.01.37-.03.69-.08.98ZM240.06,124.83c0-.65-.25-1.17-.7-1.56-.46-.39-1.01-.58-1.67-.58-.62,0-1.15.19-1.57.57-.43.38-.69.9-.78,1.58h4.72Z"/>
      <path class="cls-3" d="M248.3,121.08c.52-.3,1.12-.45,1.79-.45v2.65h-.67c-.79,0-1.39.19-1.79.56-.4.37-.6,1.02-.6,1.94v4.97h-2.52v-9.97h2.52v1.55c.32-.53.74-.95,1.27-1.25Z"/>
      <path class="cls-3" d="M251.95,119.17c-.29-.28-.44-.63-.44-1.05s.15-.77.44-1.05c.29-.28.66-.42,1.11-.42s.81.14,1.11.42c.29.28.44.63.44,1.05s-.15.77-.44,1.05c-.29.28-.66.42-1.11.42s-.82-.14-1.11-.42ZM254.3,120.78v9.97h-2.52v-9.97h2.52Z"/>
      <path class="cls-3" d="M265.98,126.52h-7.29c.06.72.31,1.28.76,1.69.44.41.99.61,1.64.61.94,0,1.6-.4,2-1.21h2.72c-.29.96-.84,1.75-1.66,2.37-.82.62-1.82.93-3.01.93-.96,0-1.82-.21-2.58-.64-.76-.43-1.36-1.03-1.78-1.81-.43-.78-.64-1.68-.64-2.7s.21-1.94.63-2.72,1.01-1.38,1.76-1.8c.76-.42,1.63-.63,2.61-.63s1.8.2,2.55.61,1.33.99,1.75,1.74c.41.75.62,1.61.62,2.58-.01.37-.03.69-.08.98ZM263.44,124.83c-.01-.65-.25-1.17-.7-1.56-.46-.39-1.01-.58-1.67-.58-.62,0-1.15.19-1.57.57-.43.38-.69.9-.78,1.58h4.72Z"/>
      <path class="cls-3" d="M276.29,121.76c.73.75,1.1,1.8,1.1,3.14v5.85h-2.52v-5.51c0-.79-.2-1.4-.59-1.83-.4-.43-.94-.64-1.62-.64s-1.25.21-1.65.64-.6,1.04-.6,1.83v5.51h-2.52v-9.97h2.52v1.24c.34-.43.76-.77,1.29-1.02.52-.25,1.1-.37,1.72-.37,1.18,0,2.14.38,2.87,1.13Z"/>
      <path class="cls-3" d="M279.77,123.05c.42-.77,1-1.37,1.75-1.8.74-.43,1.6-.64,2.56-.64,1.24,0,2.26.31,3.07.93s1.35,1.48,1.63,2.6h-2.72c-.14-.43-.39-.77-.73-1.02s-.76-.37-1.27-.37c-.72,0-1.29.26-1.71.78s-.63,1.26-.63,2.22.21,1.68.63,2.21c.42.52.99.78,1.71.78,1.02,0,1.69-.46,2-1.37h2.72c-.28,1.08-.82,1.94-1.64,2.57-.82.64-1.84.95-3.06.95-.96,0-1.81-.21-2.56-.64-.74-.43-1.33-1.03-1.75-1.8-.42-.77-.63-1.68-.63-2.71s.21-1.91.63-2.69Z"/>
      <path class="cls-3" d="M299.82,126.52h-7.29c.06.72.31,1.28.76,1.69.44.41.99.61,1.64.61.94,0,1.6-.4,2-1.21h2.72c-.29.96-.84,1.75-1.66,2.37-.82.62-1.82.93-3.01.93-.96,0-1.82-.21-2.58-.64-.76-.43-1.36-1.03-1.78-1.81-.43-.78-.64-1.68-.64-2.7s.21-1.94.63-2.72,1.01-1.38,1.76-1.8c.76-.42,1.63-.63,2.61-.63s1.8.2,2.55.61,1.33.99,1.75,1.74c.41.75.62,1.61.62,2.58,0,.37-.03.69-.08.98ZM297.28,124.83c-.01-.65-.25-1.17-.7-1.56-.46-.39-1.01-.58-1.67-.58-.62,0-1.15.19-1.57.57-.43.38-.69.9-.78,1.58h4.72Z"/>
      <path class="cls-3" d="M301.68,123.04c.4-.78.95-1.38,1.65-1.8.7-.42,1.47-.63,2.32-.63.65,0,1.27.14,1.85.42.59.28,1.06.66,1.4,1.12v-4.73h2.56v13.32h-2.56v-1.48c-.31.49-.75.89-1.31,1.19s-1.22.45-1.96.45c-.84,0-1.61-.22-2.3-.65-.7-.43-1.25-1.04-1.65-1.83-.4-.79-.6-1.69-.6-2.71,0-.99.2-1.88.6-2.67ZM308.57,124.19c-.24-.44-.56-.77-.97-1.01-.41-.23-.85-.35-1.31-.35s-.9.11-1.3.34c-.4.23-.72.56-.96,1-.25.44-.37.96-.37,1.56s.12,1.12.37,1.58c.25.45.57.79.97,1.03s.83.36,1.29.36.91-.12,1.31-.35c.41-.23.73-.57.97-1.01s.36-.96.36-1.57c0-.62-.12-1.14-.36-1.58Z"/>
      <path class="cls-3" d="M326.77,118.18v2.03h-3.35v10.53h-2.52v-10.53h-3.35v-2.03s9.22,0,9.22,0Z"/>
      <path class="cls-3" d="M337.8,126.52h-7.29c.06.72.31,1.28.76,1.69.44.41.99.61,1.64.61.94,0,1.6-.4,2-1.21h2.72c-.29.96-.84,1.75-1.66,2.37-.82.62-1.82.93-3.01.93-.96,0-1.82-.21-2.58-.64-.76-.43-1.36-1.03-1.78-1.81-.43-.78-.64-1.68-.64-2.7s.21-1.94.63-2.72,1.01-1.38,1.76-1.8c.76-.42,1.63-.63,2.61-.63s1.8.2,2.55.61,1.33.99,1.75,1.74c.41.75.62,1.61.62,2.58,0,.37-.03.69-.08.98ZM335.26,124.83c-.01-.65-.25-1.17-.7-1.56-.46-.39-1.01-.58-1.67-.58-.62,0-1.15.19-1.57.57-.43.38-.69.9-.78,1.58h4.72Z"/>
      <path class="cls-3" d="M339.66,123.04c.4-.78.95-1.38,1.64-1.8s1.46-.63,2.31-.63c.74,0,1.4.15,1.95.45.56.3,1,.68,1.34,1.13v-1.42h2.54v9.97h-2.54v-1.46c-.32.47-.77.85-1.34,1.16s-1.23.46-1.97.46c-.84,0-1.6-.22-2.29-.65s-1.24-1.04-1.64-1.83c-.4-.79-.6-1.69-.6-2.71s.2-1.88.6-2.67ZM346.55,124.19c-.24-.44-.56-.77-.97-1.01-.41-.23-.85-.35-1.31-.35s-.9.11-1.3.34c-.4.23-.72.56-.96,1-.25.44-.37.96-.37,1.56s.12,1.12.37,1.58c.25.45.57.79.97,1.03s.83.36,1.29.36.91-.12,1.31-.35c.41-.23.73-.57.97-1.01s.36-.96.36-1.57-.12-1.14-.36-1.58Z"/>
      <path class="cls-3" d="M367.26,121.76c.75.75,1.12,1.8,1.12,3.14v5.85h-2.52v-5.51c0-.78-.2-1.38-.59-1.79s-.94-.62-1.62-.62-1.23.21-1.63.62-.6,1.01-.6,1.79v5.51h-2.52v-5.51c0-.78-.2-1.38-.59-1.79s-.94-.62-1.62-.62-1.25.21-1.65.62-.6,1.01-.6,1.79v5.51h-2.52v-9.97h2.52v1.21c.32-.42.74-.75,1.25-.99s1.07-.36,1.68-.36c.78,0,1.48.17,2.09.5s1.09.8,1.42,1.41c.32-.58.79-1.04,1.41-1.39s1.29-.52,2.01-.52c1.22-.01,2.21.37,2.96,1.12Z"/>
    </g>
    <g>
      <path class="cls-2" d="M216.91,72.84h-5.31v5.48h-6.2v-5.48h-5.35v-5.84h5.35v-5.51h6.2v5.51h5.31v5.84Z"/>
      <path class="cls-2" d="M232.81,63.21v3.79h7.43v4.92h-7.43v4.19h8.42v5.18h-14.88v-23.26h14.88v5.18h-8.42Z"/>
      <path class="cls-2" d="M274.11,64.72c1.33,1.41,2,3.33,2,5.77v10.79h-6.47v-9.93c0-.99-.28-1.76-.83-2.31-.55-.55-1.3-.82-2.24-.82s-1.69.28-2.24.82c-.55.55-.83,1.32-.83,2.31v9.93h-6.47v-9.93c0-.99-.27-1.76-.81-2.31-.54-.55-1.28-.82-2.23-.82s-1.73.28-2.28.82c-.55.55-.83,1.32-.83,2.31v9.93h-6.47v-18.5h6.47v2.44c.57-.79,1.31-1.42,2.23-1.9.91-.47,1.96-.71,3.15-.71,1.36,0,2.58.3,3.65.89,1.07.59,1.91,1.43,2.52,2.51.66-1.01,1.53-1.83,2.61-2.46,1.08-.63,2.27-.94,3.56-.94,2.35,0,4.18.71,5.51,2.11Z"/>
      <path class="cls-2" d="M288.25,63.31c.92-.51,2.01-.76,3.27-.76,1.47,0,2.81.39,4.01,1.16s2.15,1.87,2.84,3.3,1.04,3.1,1.04,5.02-.35,3.59-1.04,5.03-1.64,2.55-2.84,3.32-2.54,1.15-4.01,1.15c-1.25,0-2.34-.25-3.25-.76s-1.63-1.19-2.16-2.05v11.42h-6.47v-27.36h6.47v2.57c.5-.86,1.22-1.54,2.14-2.04ZM291.87,69.2c-.65-.67-1.45-1.01-2.39-1.01s-1.74.34-2.39,1.02c-.65.68-.97,1.62-.97,2.81s.32,2.16.97,2.84c.65.68,1.45,1.02,2.39,1.02s1.74-.35,2.39-1.04c.65-.69.97-1.63.97-2.82s-.33-2.15-.97-2.82Z"/>
      <path class="cls-2" d="M308.55,56.87v24.42h-6.47v-24.42h6.47Z"/>
      <path class="cls-2" d="M315.89,80.37c-1.46-.77-2.61-1.87-3.45-3.3-.84-1.43-1.25-3.11-1.25-5.05s.42-3.59,1.27-5.02c.85-1.43,2-2.53,3.46-3.3s3.12-1.16,4.97-1.16,3.5.39,4.97,1.16c1.46.77,2.62,1.87,3.46,3.3.85,1.43,1.27,3.1,1.27,5.02s-.42,3.59-1.27,5.03c-.85,1.44-2.01,2.55-3.48,3.32s-3.13,1.15-4.98,1.15-3.51-.38-4.97-1.15ZM323.12,74.9c.6-.67.91-1.63.91-2.89s-.3-2.21-.91-2.87c-.61-.66-1.35-.99-2.23-.99s-1.62.33-2.21.99c-.59.66-.89,1.62-.89,2.87s.29,2.24.86,2.9c.57.66,1.31.99,2.21.99.9.01,1.65-.32,2.26-1Z"/>
      <path class="cls-2" d="M353.16,62.78l-11.74,27.32h-7.03l4.42-9.6-7.59-17.72h7.19l3.89,10.49,3.76-10.49h7.1Z"/>
      <path class="cls-2" d="M372.43,73.34h-12.24c.07,1.01.35,1.77.84,2.26.49.5,1.13.74,1.9.74,1.08,0,1.85-.48,2.31-1.45h6.9c-.29,1.28-.84,2.41-1.67,3.42-.83,1-1.86,1.79-3.12,2.36-1.25.57-2.64.86-4.16.86-1.83,0-3.45-.38-4.87-1.15s-2.53-1.87-3.33-3.3-1.2-3.11-1.2-5.05.4-3.61,1.19-5.03,1.9-2.51,3.32-3.28,3.05-1.16,4.9-1.16,3.44.37,4.85,1.12,2.51,1.82,3.3,3.22,1.19,3.04,1.19,4.93c0,.5-.04,1-.11,1.51ZM365.93,70.2c0-.79-.26-1.41-.79-1.86s-1.19-.68-1.98-.68-1.44.21-1.95.64-.84,1.06-.99,1.9h5.71Z"/>
      <path class="cls-2" d="M392.76,73.34h-12.24c.07,1.01.35,1.77.84,2.26.49.5,1.13.74,1.9.74,1.08,0,1.85-.48,2.31-1.45h6.9c-.29,1.28-.84,2.41-1.67,3.42-.83,1-1.86,1.79-3.12,2.36-1.25.57-2.64.86-4.16.86-1.83,0-3.45-.38-4.87-1.15s-2.53-1.87-3.33-3.3-1.2-3.11-1.2-5.05.4-3.61,1.19-5.03,1.9-2.51,3.32-3.28,3.05-1.16,4.9-1.16,3.44.37,4.85,1.12,2.51,1.82,3.3,3.22,1.19,3.04,1.19,4.93c-.01.5-.04,1-.11,1.51ZM386.26,70.2c0-.79-.26-1.41-.79-1.86s-1.19-.68-1.98-.68-1.44.21-1.95.64-.84,1.06-.99,1.9h5.71Z"/>
      <path class="cls-2" d="M398.92,80.68c-1.31-.56-2.34-1.33-3.1-2.31-.76-.98-1.18-2.08-1.27-3.32h6.27c.09.59.36,1.06.82,1.39.46.33,1.03.5,1.72.5.53,0,.95-.11,1.25-.33.31-.22.46-.51.46-.86,0-.46-.25-.8-.76-1.02-.51-.22-1.34-.46-2.51-.73-1.32-.26-2.42-.56-3.3-.89-.88-.33-1.65-.87-2.29-1.62-.65-.75-.97-1.76-.97-3.04,0-1.1.3-2.1.89-2.99.59-.89,1.47-1.6,2.62-2.13,1.15-.53,2.55-.79,4.17-.79,2.42,0,4.32.59,5.71,1.78,1.39,1.19,2.19,2.75,2.41,4.69h-5.84c-.11-.59-.37-1.05-.78-1.37s-.95-.48-1.63-.48c-.53,0-.93.1-1.2.3-.28.2-.41.47-.41.83,0,.44.25.78.76,1.01s1.32.47,2.44.71c1.34.29,2.46.61,3.35.96s1.67.92,2.34,1.7c.67.78,1.01,1.84,1.01,3.18,0,1.08-.31,2.05-.94,2.9s-1.52,1.53-2.67,2.03c-1.16.5-2.51.74-4.08.74-1.67,0-3.16-.28-4.47-.84Z"/>
      <g>
        <path class="cls-2" d="M155.46,62.75h-10.13v3.8c.47-.47,1.07-.83,1.82-1.1.74-.27,1.57-.4,2.48-.4,1.55,0,2.86.36,3.92,1.07,1.05.71,1.84,1.66,2.35,2.85.51,1.19.77,2.49.77,3.92,0,2.62-.73,4.68-2.2,6.17s-3.52,2.23-6.17,2.23c-1.84,0-3.44-.32-4.8-.97-1.36-.64-2.39-1.54-3.1-2.7-.71-1.15-1.07-2.49-1.07-4h6.4c.07.56.28,1.03.63,1.43.35.4.89.6,1.6.6.78,0,1.36-.26,1.75-.78s.58-1.22.58-2.08-.21-1.49-.63-1.93c-.42-.44-1.01-.67-1.77-.67-.58,0-1.05.13-1.42.4-.37.27-.59.61-.68,1.03h-6.4v-14.63h16.06v5.77Z"/>
        <path class="cls-2" d="M174.63,62.22l-8.26,19.03h-6.77l8.36-18.23h-9.26v-5.6h15.93v4.8Z"/>
        <path class="cls-2" d="M189.65,69.18l9.13,12.06h-7.9l-7.43-10.43v10.43h-6.56v-23.59h6.56v10.2l7.5-10.2h7.83l-9.13,11.53Z"/>
      </g>
    </g>
    <g>
      <path class="cls-2" d="M113.86,138.33c-7.46.14-13.88-6.21-13.82-13.88.06-7.41,6.12-13.7,13.83-13.71,7.77-.01,13.84,6.42,13.78,13.97-.04,7.39-6.33,13.75-13.79,13.62ZM121.61,120.64c-.05-.26-.05-.55-.15-.79-.61-1.46-2.36-1.8-3.49-.67-1.98,1.96-3.95,3.93-5.92,5.92-.29.29-.47.31-.76.01-.6-.63-1.22-1.25-1.88-1.83-.6-.52-1.52-.54-2.19-.15-1.38.8-1.48,2.36-.43,3.43,1.08,1.1,2.2,2.16,3.26,3.28.88.93,2.4.9,3.27,0,2.52-2.57,5.09-5.11,7.64-7.66.4-.42.66-.91.65-1.54Z"/>
      <path class="cls-2" d="M98.91,92.48c-.13,3.42-.76,6.19-2.46,8.65-1.19,1.73-2.75,3.01-4.76,3.64-1.44.45-2.83.16-4.15-.55-2.37-1.28-3.9-3.25-4.9-5.72-.68-1.67-1.02-3.42-1.02-5.2,0-3.11.71-6.02,2.94-8.36,1.08-1.13,2.41-1.82,3.95-2.14,1.11-.23,2.24-.35,3.32-.12,1.56.33,2.99,1.01,4.13,2.19,1.3,1.34,2.1,2.94,2.47,4.74.25,1.11.38,2.23.48,2.87Z"/>
      <path class="cls-2" d="M86.33,117.12h-12.64c-.88,0-1.06-.15-.99-1.04.12-1.45.24-2.91.48-4.35.21-1.27,1.03-2.13,2.25-2.48,2.79-.78,5.29-2.08,7.5-3.94.78-.65.94-.61,1.77,0,1.66,1.23,3.52,1.96,5.58,1.97,2.07,0,3.92-.73,5.58-1.96.18-.13.36-.28.56-.38.33-.18.64-.06.93.15.81.6,1.61,1.22,2.43,1.8,1.37.96,2.9,1.58,4.49,2.07.69.21,1.36.5,2,.82.44.22.41.42-.01.65-2.79,1.51-4.94,3.67-6.5,6.43-.08.14-.34.24-.52.25-1.1.02-2.2.01-3.31.01-3.2,0-6.4,0-9.6,0Z"/>
      <path class="cls-2" d="M60.93,111.19c-.09-.09-.21-.17-.26-.28-.02-.03.17-.23.21-.21.11.05.19.16.28.25-.07.08-.15.16-.23.24Z"/>
      <path class="cls-2" d="M129.98,97.43c0-.98-.68-1.7-1.66-1.83-.63-.09-1.25-.21-1.87-.31-1.5-.26-3-.53-4.5-.77-.82-.13-.98-.22-1.19-1.03-.67-2.65-1.79-5.11-3.15-7.46-.16-.27-.19-.54.02-.84,1.35-1.87,2.67-3.76,4.02-5.64.69-.96.65-1.9-.18-2.73-1.14-1.14-2.28-2.29-3.43-3.43-.97-.97-1.93-1.96-2.95-2.88-.69-.62-1.45-.62-2.2-.09-1.91,1.35-3.82,2.7-5.71,4.07-.32.23-.54.25-.89.06-1.17-.62-2.33-1.27-3.56-1.78-1.46-.6-2.98-1.06-4.46-1.6-.15-.06-.33-.25-.36-.41-.14-.66-.22-1.34-.33-2.01-.26-1.58-.54-3.15-.8-4.72-.22-1.34-.84-1.94-2.12-1.94-2.81,0-5.62,0-8.43,0-.41,0-.85.08-1.22.25-.72.34-.9,1.04-1,1.77-.1.69-.21,1.37-.33,2.05-.25,1.49-.52,2.97-.76,4.45-.05.31-.19.45-.48.51-.47.11-.94.23-1.4.37-2.29.69-4.47,1.63-6.55,2.82-.39.22-.69.27-1.05-.06-.26-.24-.6-.52-.91-.52-.44-.01-.61-.24-.81-.52-.09-.14-.18-.29-.3-.39-1.24-.89-2.48-1.78-3.73-2.63-.43-.3-.94-.45-1.46-.18-.33.17-.68.35-.94.6-2.02,1.99-4.02,4-6.03,6.01-.88.89-.95,1.69-.24,2.7,1.29,1.82,2.57,3.64,3.87,5.45.22.31.22.53.03.85-1.45,2.47-2.57,5.09-3.33,7.85-.12.45-.29.71-.78.77-.73.08-1.46.21-2.19.33-1.4.24-2.79.52-4.19.74-1.3.2-1.9.83-1.9,2.13v8.43c0,1.24.59,1.93,1.81,2.14,2.15.36,4.31.74,6.46,1.08.38.06.54.25.65.58.23.64.47,1.27.72,1.89.13.34,1.79,4.59,2.55,6.16.17.35.17.63-.07.95-1.28,1.77-2.51,3.58-3.82,5.33-.66.89-.57,1.97.24,2.76,2.02,1.96,3.98,3.96,5.97,5.95.17.17.35.34.54.48.45.33,1.45.31,1.88,0,.72-.53,1.45-1.06,2.19-1.57,1.16-.81,2.34-1.59,3.49-2.42.31-.22.53-.26.85-.07,2.58,1.54,5.34,2.66,8.23,3.44.27.07.36.19.39.46.08.6.19,1.19.29,1.78.27,1.57.54,3.15.8,4.72.23,1.41.85,1.94,2.3,1.94h8.52c.89,0,1.6-.53,1.83-1.39.09-.33.1-.68.16-1.03.35-2.02.69-4.04,1.06-6.06.03-.15.22-.34.37-.4.39-.15.81-.25,1.22-.35.35-.08.44-.21.28-.56-.37-.84-.73-1.69-1.03-2.55-.13-.37-.3-.38-.6-.29-.62.19-1.24.37-1.87.53-.95.24-1.6.74-1.72,1.78-.06.51-.17,1.01-.25,1.52-.26,1.53-.53,3.06-.78,4.59-.07.42-.22.6-.66.6-1.63-.02-3.26-.02-4.89,0-.4,0-.59-.14-.65-.52-.1-.6-.19-1.19-.3-1.78-.27-1.56-.54-3.12-.8-4.68-.11-.66-.5-1.09-1.11-1.32-.54-.2-1.1-.32-1.64-.51-1.65-.58-3.32-1.1-4.92-1.8-1.35-.59-2.6-1.39-3.91-2.09-.62-.33-1.25-.34-1.84.06-.97.66-1.93,1.35-2.89,2.03-.94.67-1.89,1.34-2.77,1.97-1.44-1.43-2.84-2.82-4.25-4.23.04-.06.1-.15.16-.23,1.25-1.77,2.51-3.54,3.76-5.32.47-.67.5-1.38.12-2.09-.46-.87-1-1.69-1.4-2.58-.63-1.38-1.18-2.8-1.76-4.21-.1-.25-.27-.88-.29-.96-.24-.89-.46-1.78-.75-2.65-.17-.51-.52-.95-1.09-1.06-1.21-.25-2.43-.46-3.64-.68-1.04-.19-2.08-.37-3.12-.53-.26-.04-.42-.13-.42-.42,0-1.75,0-3.51,0-5.26,0-.13.15-.35.27-.38.48-.13.97-.2,1.46-.28,1.74-.29,3.48-.56,5.22-.86.62-.11,1.1-.47,1.33-1.05.24-.59.37-1.21.57-1.81.48-1.41.9-2.85,1.5-4.2.68-1.52,1.53-2.97,2.33-4.44.41-.75.3-1.41-.18-2.07-1.24-1.74-2.48-3.49-3.72-5.23-.19-.26-.23-.46.03-.7,1.22-1.2,2.42-2.41,3.62-3.62.23-.23.4-.22.66-.04,1.73,1.24,3.49,2.44,5.2,3.7.81.6,1.59.64,2.44.17.58-.32,1.16-.64,1.74-.96,1.55-.85,3.16-1.56,4.85-2.08,1.15-.35,2.32-.67,3.47-1.02.63-.19,1.03-.63,1.17-1.27.18-.87.32-1.75.47-2.63.23-1.35.44-2.71.66-4.06.04-.27.11-.49.46-.49,1.74.01,3.47.01,5.21,0,.26,0,.4.1.44.35.06.31.1.62.16.94.34,1.96.69,3.92,1.03,5.88.1.6.43,1.04.97,1.27.53.22,1.09.35,1.63.53,1.23.41,2.5.73,3.67,1.25,1.67.75,3.28,1.65,4.91,2.51.77.41,1.47.42,2.2-.1,1.76-1.27,3.55-2.5,5.31-3.77.36-.26.58-.22.88.09,1.11,1.14,2.24,2.25,3.36,3.37.46.46.45.45.06,1-1.24,1.73-2.45,3.47-3.7,5.19-.57.79-.54,1.54-.09,2.36.76,1.4,1.58,2.79,2.18,4.26.7,1.73,1.21,3.53,1.75,5.32.28.93.8,1.47,1.78,1.63.95.16,1.9.31,2.85.47,1.2.21,2.41.41,3.61.64.14.03.35.22.35.34.02,1.77.02,3.54,0,5.3,0,.14-.19.36-.32.39-.85.18-1.72.33-2.58.47-1.4.23-2.8.45-4.19.69-.24.04-.48.18-.69.32-.81.53-.83,1.46-1.06,2.27-.02.07.12.24.21.28.91.36,1.82.69,2.74,1.04.25.1.41.06.54-.21.07-.15.25-.32.41-.36.82-.18,1.66-.31,2.49-.46,1.53-.27,3.06-.51,4.59-.8.96-.18,1.52-.87,1.52-1.85.08-2.94.08-5.9.07-8.86Z"/>
    </g>
  </g>
</svg>