<svg xmlns="http://www.w3.org/2000/svg" xmlns:xlink="http://www.w3.org/1999/xlink" width="199" height="189" viewBox="0 0 199 189">
  <defs>
    <clipPath id="clip-path">
      <rect id="Rectangle_210" data-name="Rectangle 210" width="199" height="189" transform="translate(1167 427)" fill="#fff"/>
    </clipPath>
    <linearGradient id="linear-gradient" x1="0.233" y1="0.364" x2="0.5" y2="0.827" gradientUnits="objectBoundingBox">
      <stop offset="0" stop-color="#001959"/>
      <stop offset="1" stop-color="#0af"/>
    </linearGradient>
    <linearGradient id="linear-gradient-2" x1="0.085" y1="0.986" x2="0.568" y2="0.191" gradientUnits="objectBoundingBox">
      <stop offset="0" stop-color="#002fa7"/>
      <stop offset="1" stop-color="#00aff0"/>
    </linearGradient>
  </defs>
  <g id="Mask_Group_5" data-name="Mask Group 5" transform="translate(-1167 -427)" clip-path="url(#clip-path)">
    <g id="Group_1088" data-name="Group 1088" transform="translate(1174.31 426.421)">
      <path id="Combined-Shape" d="M81.186,7.145l51.359,79.814.027.008.088.172,27.534,42.79,15.29,21.662a107.434,107.434,0,0,0,18.677,17.024c30.445,20.805,47.8,21.221,48.487,21.229h.021s-58.861,1.36-81.209-1.089-30.521-13.336-47.963-40.279-37.062-57.7-37.062-57.7.121-.1.364-.278l-.951-1.142L52.358,51.987Z" transform="translate(36.526 0.158)" fill="url(#linear-gradient)"/>
      <path id="Shape_1" d="M117.726,6.918,0,188.178s14.789,5.366,42.512-3.81,40.41-34.129,49.6-60.418,23.522-39.577,42.512-40.279a132.806,132.806,0,0,1,34.337,3.266Z" transform="translate(0 0)" fill="url(#linear-gradient-2)"/>
    </g>
  </g>
</svg>
