<?xml version="1.0" encoding="UTF-8"?><svg id="Layer_1" xmlns="http://www.w3.org/2000/svg" viewBox="0 0 466.97 194.57"><defs><style>.cls-1{fill:#fff;}.cls-2{fill:#e47400;}.cls-3{fill:#231f20;}</style></defs><rect class="cls-2" width="466.97" height="194.57"/><path class="cls-3" d="m232.82,100.89v2.02h-3.51v10.69h-2.54v-10.69h-3.49v-2.02h9.54Z"/><path class="cls-3" d="m241.45,104.11c.77.41,1.38,1,1.83,1.77.44.77.67,1.68.67,2.73s-.22,1.95-.67,2.72c-.44.77-1.05,1.36-1.83,1.77-.77.41-1.65.62-2.62.62s-1.85-.21-2.62-.62-1.38-1-1.83-1.77-.67-1.67-.67-2.72.22-1.95.67-2.73c.44-.77,1.05-1.37,1.83-1.77.77-.41,1.65-.61,2.62-.61s1.84.2,2.62.61Zm-4.42,2.33c-.49.5-.74,1.22-.74,2.17s.25,1.67.74,2.17,1.09.75,1.8.75,1.31-.25,1.8-.75c.49-.5.74-1.22.74-2.17s-.25-1.67-.74-2.17c-.49-.5-1.09-.75-1.8-.75s-1.31.25-1.8.75Z"/><path class="cls-3" d="m251.08,111.42v2.18h-1.33c-1.12,0-1.97-.27-2.57-.81-.59-.54-.89-1.44-.89-2.7v-4.32h-1.38v-2.14h1.38v-2.47h2.54v2.47h2.23v2.14h-2.23v4.36c0,.48.1.82.29,1.01s.52.29.97.29h.99Z"/><path class="cls-3" d="m258.96,104.09c.6.4,1.03.93,1.28,1.6v-2.07h2.52v9.97h-2.52v-2.09c-.25.67-.68,1.21-1.28,1.61-.6.4-1.32.6-2.16.6s-1.6-.2-2.27-.61c-.67-.41-1.2-1-1.57-1.77-.38-.77-.57-1.68-.57-2.73s.19-1.95.57-2.73c.38-.77.9-1.37,1.57-1.77.67-.41,1.43-.61,2.27-.61s1.56.2,2.16.59Zm-3.28,2.39c-.48.52-.72,1.22-.72,2.12s.24,1.6.72,2.11c.48.51,1.12.77,1.91.77s1.4-.26,1.9-.78c.5-.52.75-1.22.75-2.1s-.25-1.59-.75-2.12c-.5-.52-1.13-.78-1.9-.78s-1.43.26-1.91.77Z"/><path class="cls-3" d="m267.6,100.28v13.32h-2.54v-13.32h2.54Z"/><path class="cls-3" d="m280.45,113.6l-2.97-4.95h-1.12v4.95h-2.54v-12.71h4.84c1.48,0,2.6.36,3.38,1.08.77.72,1.16,1.67,1.16,2.84,0,.96-.27,1.76-.8,2.41-.53.65-1.3,1.08-2.31,1.3l3.17,5.08h-2.81Zm-4.09-6.7h2.09c1.45,0,2.18-.64,2.18-1.93,0-.61-.18-1.09-.53-1.43-.35-.34-.9-.51-1.65-.51h-2.09v3.87Z"/><path class="cls-3" d="m294.2,109.1h-7.31c.04.89.28,1.54.72,1.96.44.42,1,.63,1.66.63.59,0,1.08-.14,1.47-.43.39-.29.64-.68.75-1.17h2.68c-.13.7-.41,1.32-.85,1.87s-.99.98-1.67,1.3c-.68.31-1.43.47-2.26.47-.97,0-1.84-.21-2.59-.62s-1.34-1-1.76-1.77-.63-1.67-.63-2.72.21-1.95.63-2.73c.42-.77,1.01-1.37,1.76-1.77.76-.41,1.62-.61,2.59-.61s1.85.2,2.58.61c.74.41,1.31.97,1.71,1.68.4.71.6,1.53.6,2.44,0,.25-.03.54-.09.86Zm-3.11-2.97c-.46-.42-1.03-.63-1.7-.63s-1.26.21-1.73.63-.73,1.04-.77,1.85h4.84c.04-.82-.18-1.43-.64-1.85Z"/><path class="cls-3" d="m300.43,111.06l2.52-7.43h2.7l-3.69,9.97h-3.1l-3.69-9.97h2.72l2.54,7.43Z"/><path class="cls-3" d="m316.34,109.1h-7.31c.04.89.28,1.54.72,1.96.44.42,1,.63,1.66.63.59,0,1.08-.14,1.47-.43s.64-.68.75-1.17h2.68c-.13.7-.41,1.32-.85,1.87s-.99.98-1.67,1.3c-.68.31-1.43.47-2.26.47-.97,0-1.84-.21-2.59-.62s-1.34-1-1.76-1.77-.63-1.67-.63-2.72.21-1.95.63-2.73c.42-.77,1.01-1.37,1.76-1.77.76-.41,1.62-.61,2.59-.61s1.84.2,2.58.61c.74.41,1.31.97,1.71,1.68s.6,1.53.6,2.44c0,.25-.03.54-.09.86Zm-3.1-2.97c-.46-.42-1.03-.63-1.7-.63s-1.26.21-1.73.63c-.47.42-.73,1.04-.77,1.85h4.84c.04-.82-.18-1.43-.64-1.85Z"/><path class="cls-3" d="m326.93,104.61c.68.76,1.03,1.82,1.03,3.19v5.8h-2.52v-5.51c0-.79-.2-1.41-.61-1.84-.41-.44-.97-.66-1.67-.66s-1.3.23-1.73.7c-.43.47-.65,1.14-.65,2.02v5.29h-2.54v-9.97h2.54v2c.26-.67.7-1.2,1.31-1.58.61-.38,1.3-.57,2.1-.57,1.15,0,2.07.38,2.75,1.13Z"/><path class="cls-3" d="m339.72,103.62v9.97h-2.54v-2.02c-.26.67-.7,1.2-1.3,1.58s-1.3.57-2.1.57c-1.15,0-2.07-.38-2.75-1.13s-1.03-1.81-1.03-3.17v-5.8h2.52v5.51c0,.79.2,1.41.61,1.84.41.44.96.66,1.66.66.73,0,1.31-.23,1.75-.7.43-.47.65-1.14.65-2.02v-5.29h2.54Z"/><path class="cls-3" d="m351.32,109.1h-7.31c.04.89.28,1.54.72,1.96.44.42,1,.63,1.66.63.59,0,1.08-.14,1.47-.43.39-.29.64-.68.75-1.17h2.68c-.13.7-.41,1.32-.85,1.87-.43.55-.99.98-1.66,1.3-.68.31-1.43.47-2.26.47-.97,0-1.84-.21-2.59-.62s-1.34-1-1.76-1.77-.63-1.67-.63-2.72.21-1.95.63-2.73c.42-.77,1.01-1.37,1.76-1.77.76-.41,1.62-.61,2.59-.61s1.85.2,2.58.61c.74.41,1.31.97,1.71,1.68s.6,1.53.6,2.44c0,.25-.03.54-.09.86Zm-3.11-2.97c-.46-.42-1.03-.63-1.7-.63s-1.26.21-1.73.63c-.47.42-.73,1.04-.77,1.85h4.84c.04-.82-.18-1.43-.64-1.85Z"/><path class="cls-3" d="m228.38,123.26v2.02h-3.51v10.69h-2.54v-10.69h-3.49v-2.02h9.54Z"/><path class="cls-3" d="m239.32,126v9.97h-2.54v-2.02c-.26.67-.7,1.2-1.3,1.58s-1.3.57-2.1.57c-1.15,0-2.07-.38-2.75-1.13s-1.03-1.81-1.03-3.17v-5.8h2.52v5.51c0,.79.2,1.41.61,1.84.41.44.96.66,1.66.66.73,0,1.31-.23,1.75-.7.43-.47.65-1.14.65-2.02v-5.29h2.54Z"/><path class="cls-3" d="m245.64,126.41c.61-.37,1.3-.55,2.05-.55v2.72h-.74c-1.86,0-2.79.86-2.79,2.59v4.81h-2.54v-9.97h2.54v1.91c.37-.64.86-1.14,1.48-1.5Z"/><path class="cls-3" d="m257.79,126.99c.68.76,1.03,1.82,1.03,3.19v5.8h-2.52v-5.51c0-.79-.2-1.41-.61-1.84-.41-.44-.97-.66-1.67-.66s-1.3.23-1.73.7-.65,1.14-.65,2.02v5.29h-2.54v-9.97h2.54v2c.26-.67.7-1.2,1.31-1.58.61-.38,1.3-.57,2.1-.57,1.15,0,2.07.38,2.75,1.13Z"/><path class="cls-3" d="m268.27,126.49c.77.41,1.38,1,1.83,1.77.44.77.67,1.68.67,2.73s-.22,1.95-.67,2.72c-.45.77-1.05,1.36-1.83,1.77-.77.41-1.65.62-2.62.62s-1.84-.21-2.62-.62-1.38-1-1.83-1.77-.67-1.67-.67-2.72.22-1.95.67-2.73c.44-.77,1.05-1.37,1.83-1.77.77-.41,1.65-.61,2.62-.61s1.85.2,2.62.61Zm-4.42,2.33c-.49.5-.74,1.22-.74,2.17s.25,1.67.74,2.17,1.09.75,1.8.75,1.31-.25,1.8-.75.74-1.22.74-2.17-.25-1.67-.74-2.17-1.09-.75-1.8-.75-1.31.25-1.8.75Z"/><path class="cls-3" d="m276.9,133.43l2.52-7.43h2.7l-3.69,9.97h-3.1l-3.69-9.97h2.72l2.54,7.43Z"/><path class="cls-3" d="m292.82,131.47h-7.31c.04.89.28,1.54.72,1.96.44.42,1,.63,1.66.63.59,0,1.08-.14,1.47-.43.39-.29.64-.68.75-1.17h2.68c-.13.7-.41,1.32-.85,1.87-.43.55-.99.98-1.67,1.3-.68.31-1.43.47-2.26.47-.97,0-1.84-.21-2.59-.62s-1.34-1-1.76-1.77-.63-1.67-.63-2.72.21-1.95.63-2.73c.42-.77,1.01-1.37,1.76-1.77.76-.41,1.62-.61,2.59-.61s1.84.2,2.58.61c.74.41,1.31.97,1.71,1.68.4.71.6,1.53.6,2.44,0,.25-.03.54-.09.86Zm-3.1-2.97c-.46-.42-1.03-.63-1.7-.63s-1.26.21-1.73.63c-.47.42-.73,1.04-.77,1.85h4.84c.04-.82-.18-1.43-.64-1.85Z"/><path class="cls-3" d="m298.72,126.41c.61-.37,1.3-.55,2.05-.55v2.72h-.74c-1.86,0-2.79.86-2.79,2.59v4.81h-2.54v-9.97h2.54v1.91c.37-.64.87-1.14,1.48-1.5Z"/><path class="cls-3" d="m306.86,122.56c.89-1.82,2.06-3.3,3.51-4.43h2.47v.25c-3.24,2.68-4.86,6.13-4.86,10.35s1.62,7.67,4.86,10.35v.23h-2.47c-1.45-1.13-2.62-2.6-3.51-4.42-.89-1.82-1.33-3.87-1.33-6.17s.44-4.35,1.33-6.17Z"/><path class="cls-3" d="m315.84,134.03h4.27v1.94h-6.8v-12.71h2.54v10.76Z"/><path class="cls-3" d="m330.25,123.26v2.02h-3.51v10.69h-2.54v-10.69h-3.49v-2.02h9.54Z"/><path class="cls-3" d="m345.36,123.41v12.56h-2.52v-8.77l-3.22,8.77h-2.2l-3.22-8.73v8.73h-2.54v-12.56h3.08l3.82,9.45,3.74-9.45h3.06Z"/><path class="cls-3" d="m351.84,134.91c-.89,1.82-2.06,3.29-3.51,4.41h-2.47v-.23c3.24-2.68,4.86-6.13,4.86-10.35s-1.62-7.67-4.86-10.35v-.25h2.47c1.45,1.13,2.62,2.6,3.51,4.42.89,1.82,1.33,3.87,1.33,6.17s-.44,4.37-1.33,6.19Z"/><path class="cls-1" d="m229.05,84.75c-.69,1.04-1.71,1.88-3.07,2.51s-2.98.94-4.87.94v2.64h-1.55v-2.71c-2.49-.22-4.51-.97-6.07-2.24-1.56-1.28-2.42-3-2.57-5.18h6.9c.09,1.23.67,2.02,1.75,2.38v-4.29c-.29-.07-.54-.14-.76-.23-1.63-.46-2.98-.93-4.04-1.4-1.07-.47-1.99-1.19-2.76-2.16-.77-.97-1.16-2.24-1.16-3.83,0-1.41.38-2.62,1.16-3.65.77-1.02,1.82-1.81,3.14-2.36,1.32-.55,2.79-.86,4.42-.92v-2.67h1.55v2.71c2.57.18,4.6.89,6.09,2.13,1.49,1.24,2.3,2.93,2.46,5.07h-6.96c-.13-1.12-.66-1.84-1.58-2.14v4.22c.53.18.92.3,1.19.36,1.63.51,2.96,1,3.99,1.48,1.03.48,1.92,1.2,2.67,2.15.75.95,1.12,2.18,1.12,3.7,0,1.3-.35,2.47-1.04,3.51Zm-9.49-11.8v-3.76c-1.17.11-1.75.67-1.75,1.68,0,.84.58,1.53,1.75,2.08Zm3.04,9.75c.37-.34.56-.79.56-1.34,0-.46-.18-.86-.53-1.19s-.86-.62-1.52-.86v3.96c.62-.04,1.11-.24,1.48-.58Z"/><path class="cls-1" d="m232.73,84.01v-5.41l10.23-14.32h7v14.12h2.57v5.61h-2.57v3.96h-6.54v-3.96h-10.69Zm11.19-12.31l-4.65,6.7h4.65v-6.7Z"/><path class="cls-1" d="m279.87,78c.8,1.03,1.2,2.23,1.2,3.6,0,2.02-.67,3.59-2.01,4.7-1.34,1.11-3.27,1.67-5.78,1.67h-11.55v-23.36h11.29c2.35,0,4.2.52,5.53,1.55,1.33,1.03,2,2.53,2,4.49,0,1.39-.36,2.55-1.09,3.48-.73.93-1.68,1.54-2.87,1.83,1.39.33,2.48,1.01,3.28,2.05Zm-11.63-4.06h3.27c1.63,0,2.44-.68,2.44-2.05s-.83-2.11-2.47-2.11h-3.23v4.16Zm6.2,6.7c0-1.45-.85-2.18-2.54-2.18h-3.66v4.29h3.66c1.69,0,2.54-.7,2.54-2.11Z"/><path class="cls-1" d="m284.34,61.95c.7-.63,1.63-.94,2.77-.94s2.06.31,2.74.94c.68.63,1.02,1.42,1.02,2.39s-.35,1.69-1.04,2.31-1.6.92-2.72.92-2.07-.31-2.77-.92c-.71-.62-1.06-1.39-1.06-2.31s.35-1.77,1.06-2.39Zm5.97,7.51v18.51h-6.5v-18.51h6.5Z"/><path class="cls-1" d="m300.41,63.55v24.42h-6.5v-24.42h6.5Z"/><path class="cls-1" d="m310.51,63.55v24.42h-6.5v-24.42h6.5Z"/><path class="cls-1" d="m314.63,61.95c.7-.63,1.63-.94,2.77-.94s2.06.31,2.74.94,1.02,1.42,1.02,2.39-.35,1.69-1.04,2.31c-.69.62-1.6.92-2.72.92s-2.07-.31-2.77-.92-1.06-1.39-1.06-2.31.35-1.77,1.06-2.39Zm5.97,7.51v18.51h-6.5v-18.51h6.5Z"/><path class="cls-1" d="m337.91,70.36c1.46.76,2.61,1.86,3.45,3.3.84,1.44,1.25,3.12,1.25,5.03s-.42,3.62-1.25,5.05c-.84,1.43-1.98,2.53-3.45,3.3-1.46.77-3.12,1.16-4.97,1.16s-3.51-.38-4.98-1.16c-1.47-.77-2.63-1.87-3.46-3.3-.84-1.43-1.25-3.11-1.25-5.05s.42-3.62,1.25-5.05c.84-1.43,1.99-2.53,3.46-3.28s3.14-1.14,4.98-1.14,3.5.38,4.97,1.14Zm-7.21,5.46c-.59.66-.89,1.62-.89,2.87s.3,2.24.89,2.9c.59.66,1.34.99,2.24.99s1.62-.33,2.21-1.01c.59-.67.89-1.63.89-2.89s-.3-2.21-.89-2.87-1.33-.99-2.21-.99-1.65.33-2.24.99Z"/><path class="cls-1" d="m362.61,71.42c1.21,1.42,1.81,3.35,1.81,5.79v10.76h-6.43v-9.93c0-1.08-.28-1.92-.84-2.52-.56-.61-1.32-.91-2.26-.91s-1.74.31-2.31.94c-.57.63-.86,1.49-.86,2.59v9.83h-6.5v-18.51h6.5v3.1c.53-.99,1.3-1.78,2.31-2.38,1.01-.59,2.2-.89,3.56-.89,2.13,0,3.81.71,5.02,2.13Z"/><path class="cls-1" d="m169.86,102.89c0,8.74,0,17.47,0,26.21q0,.57-.56.57c-3.21,0-6.43,0-9.64,0-.52,0-.53,0-.53-.51,0-1.09-.01-2.19,0-3.28,0-.77.05-1.54.06-2.31,0-.56-.05-1.11-.05-1.67,0-12.63,0-25.26,0-37.88,0-.75,0-1.51,0-2.26,0-1.74.01-3.49,0-5.23,0-.31.09-.41.41-.4,1.77.02,3.55.02,5.32,0,.77,0,1.54-.09,2.31-.09.82,0,1.63.07,2.45.09.23,0,.24.13.24.3,0,.76,0,1.52,0,2.29,0,8.06,0,16.12,0,24.17Z"/><path class="cls-1" d="m109.85,91.77c0-1.39,0-2.79,0-4.18,0-.56-.01-.58-.54-.69-1.94-.4-3.8-1.03-5.57-1.93-2.07-1.05-3.37-2.7-3.91-4.96-.55-2.26-.34-4.46.7-6.54.8-1.6,2.11-2.72,3.69-3.52,1.3-.66,2.67-1.1,4.11-1.32.41-.06.82-.15,1.23-.2.3-.03.3-.22.3-.43,0-.88,0-1.76,0-2.64,0-.47.01-.48.48-.49.81,0,1.62,0,2.43,0,.46,0,.47.01.47.49,0,.86,0,1.71,0,2.57,0,.33.08.46.45.51,2.16.32,4.17,1.03,5.89,2.44,1.52,1.25,2.47,2.87,3.12,4.7.07.19.05.32-.19.37-1.27.26-2.55.54-3.82.81-.27.06-.58.22-.78.13-.18-.07-.24-.43-.36-.66-.5-.96-1.06-1.88-1.99-2.51-.57-.39-1.21-.6-1.86-.75-.38-.09-.45-.02-.45.37,0,2.54,0,5.07,0,7.61,0,.25.08.37.34.45,1.33.39,2.66.77,3.97,1.22,1.12.38,2.27.69,3.2,1.47,1.3,1.09,2.2,2.45,2.73,4.07.53,1.61.57,3.26.3,4.9-.44,2.6-1.85,4.61-4.06,6.04-1.46.95-3.08,1.49-4.8,1.74-.47.07-.94.16-1.41.2-.27.03-.26.2-.26.38,0,.89,0,1.79,0,2.68,0,.37,0,.74,0,1.11,0,.26-.09.35-.36.35-.88-.01-1.76-.02-2.64,0-.31,0-.39-.11-.38-.4,0-1.18,0-2.37,0-3.55,0-.54,0-.51-.53-.57-1.44-.17-2.84-.48-4.19-1.03-1.58-.64-2.95-1.56-4.1-2.8-1.12-1.22-1.93-2.63-2.47-4.19-.26-.74-.25-.74.55-.92,1.39-.31,2.78-.61,4.15-.96.34-.09.39.06.46.29.31,1.01.75,1.97,1.42,2.79.98,1.21,2.24,1.94,3.78,2.2.17.03.35.07.52.11.31.06.42-.06.41-.38-.02-1.01,0-2.02,0-3.04,0-.44,0-.88,0-1.32Zm3.38.16c0,1.4,0,2.81,0,4.21,0,.29.09.39.39.38.86-.04,1.66-.26,2.41-.66,1.14-.61,1.98-1.5,2.31-2.79.38-1.5.16-2.86-1.01-3.95-1.07-.99-2.41-1.41-3.81-1.69-.32-.06-.28.17-.28.35,0,1.38,0,2.76,0,4.14Zm-3.38-14.98c0-1.21,0-2.43,0-3.64,0-.27-.08-.41-.37-.36-.36.05-.73.07-1.09.15-.96.2-1.83.59-2.5,1.32-.73.8-.95,1.78-.88,2.84.07,1.07.54,1.92,1.42,2.54.88.62,1.89.92,2.94,1.08.47.07.47.08.47-.4,0-1.18,0-2.35,0-3.53Z"/><path class="cls-1" d="m147.98,68.66c.06-.18.08-.29.13-.37.95-1.65,1.91-3.3,2.86-4.95.75-1.29,1.49-2.58,2.24-3.87.05-.09.13-.15.2-.23.07.07.16.13.21.22.9,1.53,1.8,3.06,2.69,4.6.81,1.4,1.61,2.81,2.41,4.23.05.09.07.21.12.36-.18,0-.31.02-.44.02-1.01,0-2.02.01-3.04,0-.31,0-.4.09-.41.41-.02,1.03-.01,2.07-.13,3.1-.16,1.44-.36,2.87-.64,4.29-.47,2.38-1.14,4.72-2.1,6.95-.76,1.77-1.6,3.51-2.51,5.2-1.11,2.08-2.43,4.03-3.89,5.88-2.05,2.61-4.33,5-6.83,7.17-1.89,1.64-3.88,3.15-5.95,4.55-2.88,1.95-5.91,3.62-9.08,5.03-1.85.82-3.73,1.56-5.64,2.24-1.74.62-3.51,1.15-5.28,1.65-1.33.37-2.69.65-4.05.93-1.18.24-2.37.46-3.57.64-1.55.23-3.1.46-4.66.6-1.6.14-3.2.17-4.81.25-.57.03-1.13.13-1.7.12-.5,0-1.03-.02-1.46-.35-.52-.39-.75-.91-.65-1.56.1-.65.6-1.18,1.24-1.24.92-.09,1.85-.07,2.77-.13,1.46-.08,2.92-.17,4.38-.28.86-.06,1.73-.14,2.59-.25.76-.09,1.53-.22,2.29-.35.97-.16,1.94-.31,2.91-.52,1.12-.24,2.24-.51,3.35-.79,2.4-.59,4.76-1.34,7.08-2.21,2.79-1.06,5.5-2.3,8.12-3.74,2.81-1.54,5.48-3.3,7.99-5.28,2.82-2.22,5.4-4.7,7.68-7.47,2.05-2.49,3.83-5.17,5.29-8.06.99-1.96,1.83-3.98,2.46-6.08.4-1.33.7-2.7.99-4.07.43-2.01.63-4.06.64-6.11q0-.52-.53-.52c-.93,0-1.86,0-2.79,0-.14,0-.28,0-.5,0Z"/><path class="cls-1" d="m153.45,117.64c0,3.23,0,6.45,0,9.68,0,.68-.02,1.36,0,2.03,0,.25-.1.31-.31.31-.67-.02-1.35-.06-2.02-.06-2.6.01-5.21.04-7.81.05-.55,0-.57-.01-.57-.55,0-3.51,0-7.02,0-10.53,0-4.14,0-8.28,0-12.41q0-.58.57-.58c3.21,0,6.43,0,9.64,0q.52,0,.52.53c0,3.84,0,7.69,0,11.53Z"/><path class="cls-1" d="m137.08,122.18c0,2.32,0,4.64,0,6.96,0,.35-.11.43-.44.43-2.41,0-4.83.01-7.24.02-.88,0-1.76-.03-2.64-.01-.32,0-.41-.09-.41-.4,0-1.78,0-3.57,0-5.35,0-2.83,0-5.66,0-8.5q0-.59.59-.59c3.2,0,6.4,0,9.6,0q.53,0,.53.52c0,2.31,0,4.62,0,6.93Z"/><path class="cls-1" d="m120.65,129.55c-.16,0-.28,0-.4,0-3.27,0-6.55,0-9.82,0-.36,0-.47-.09-.46-.46.03-1.5.04-2.99.04-4.49,0-1.49-.02-2.97-.03-4.46,0-.47,0-.48.48-.48,3.25,0,6.5,0,9.75,0,.34,0,.47.07.47.45-.02,3.01,0,6.02,0,9.03,0,.12,0,.23-.02.4Z"/><path class="cls-1" d="m98.92,129.54c-1.64,0-3.28,0-4.93,0-.32,0-.4-.1-.4-.4.01-2.3.02-4.59,0-6.89,0-.36.11-.44.44-.44,3.26,0,6.52.01,9.78,0,.36,0,.48.1.47.46-.02,2.25-.02,4.5-.03,6.75,0,.51,0,.5-.52.5-1.61,0-3.21,0-4.82,0,0,0,0,.01,0,.02Z"/></svg>