<?xml version="1.0" encoding="UTF-8"?><svg id="Layer_1" xmlns="http://www.w3.org/2000/svg" viewBox="0 0 466.97 194.57"><defs><style>.cls-1{stroke:#fff;stroke-linecap:round;stroke-linejoin:round;stroke-width:2px;}.cls-1,.cls-2{fill:#fff;}.cls-3{fill:#f4932e;}.cls-4{fill:#231f20;}</style></defs><rect class="cls-3" width="466.97" height="194.57"/><path class="cls-2" d="m165.91,63.26c1.2.58,2.11,1.38,2.72,2.38.62,1,.92,2.13.92,3.38,0,1.52-.37,2.73-1.12,3.65s-1.64,1.49-2.67,1.73v.13c2.82,1.01,4.22,2.88,4.22,5.61,0,1.39-.32,2.61-.96,3.66-.64,1.06-1.56,1.88-2.75,2.46-1.2.58-2.63.87-4.31.87-2.77,0-4.96-.67-6.55-2.01-1.59-1.34-2.44-3.42-2.52-6.24h6.34c-.04,1.91.78,2.87,2.48,2.87.59,0,1.07-.19,1.44-.58.36-.38.54-.89.54-1.5,0-.79-.27-1.39-.81-1.78s-1.4-.59-2.59-.59h-1.16v-5.25h1.12c.86,0,1.57-.15,2.14-.45s.86-.9.86-1.8c0-.68-.17-1.19-.5-1.53-.33-.34-.77-.51-1.32-.51-.62,0-1.08.24-1.4.71-.32.47-.5,1.07-.54,1.8h-6.3c.09-2.55.85-4.5,2.29-5.86,1.44-1.35,3.47-2.03,6.09-2.03,1.69,0,3.14.29,4.34.87Z"/><path class="cls-2" d="m172.96,74.96c0-3.63.78-6.51,2.33-8.63,1.55-2.12,3.97-3.18,7.24-3.18s5.7,1.07,7.26,3.2c1.56,2.13,2.34,5.01,2.34,8.61s-.78,6.51-2.34,8.65c-1.56,2.13-3.98,3.2-7.26,3.2s-5.69-1.07-7.24-3.2c-1.55-2.13-2.33-5.02-2.33-8.65Zm12.77,0c0-1.8-.21-3.2-.64-4.19-.43-.99-1.28-1.48-2.56-1.48s-2.13.5-2.56,1.48c-.43.99-.64,2.39-.64,4.19s.21,3.23.64,4.22c.43.99,1.28,1.49,2.56,1.49s2.13-.5,2.56-1.49c.43-.99.64-2.4.64-4.22Z"/><path class="cls-2" d="m210.87,78.49h-5.31v5.44h-6.24v-5.44h-5.28v-5.94h5.28v-5.44h6.24v5.44h5.31v5.94Z"/><path class="cls-2" d="m235.67,64.42c1.57.74,2.85,1.78,3.84,3.13.99,1.35,1.66,2.92,2.01,4.7h-6.83c-.37-.92-.96-1.64-1.75-2.16-.79-.52-1.71-.78-2.74-.78-1.43,0-2.58.53-3.46,1.6s-1.32,2.49-1.32,4.27.44,3.21,1.32,4.29c.88,1.08,2.03,1.62,3.46,1.62,1.03,0,1.95-.26,2.74-.79.79-.53,1.38-1.25,1.75-2.18h6.83c-.53,2.73-1.78,4.9-3.75,6.52-1.97,1.62-4.46,2.43-7.47,2.43-2.31,0-4.33-.5-6.06-1.5-1.73-1-3.06-2.4-3.99-4.21-.94-1.8-1.4-3.86-1.4-6.17s.47-4.37,1.4-6.17c.93-1.8,2.27-3.21,3.99-4.21,1.73-1,3.75-1.5,6.06-1.5,2,0,3.79.37,5.36,1.11Z"/><path class="cls-2" d="m258.15,69.3c1.46.76,2.61,1.86,3.45,3.3.84,1.44,1.25,3.12,1.25,5.03s-.42,3.62-1.25,5.05c-.84,1.43-1.99,2.53-3.45,3.3-1.46.77-3.12,1.15-4.97,1.15s-3.51-.38-4.98-1.15-2.63-1.87-3.46-3.3c-.84-1.43-1.25-3.11-1.25-5.05s.42-3.62,1.25-5.05,1.99-2.52,3.46-3.28,3.14-1.14,4.98-1.14,3.5.38,4.97,1.14Zm-7.21,5.46c-.59.66-.89,1.62-.89,2.87s.3,2.24.89,2.9c.59.66,1.34.99,2.24.99s1.62-.34,2.21-1.01c.59-.67.89-1.63.89-2.89s-.3-2.21-.89-2.87-1.33-.99-2.21-.99-1.65.33-2.24.99Z"/><path class="cls-2" d="m284.46,68.39v18.51h-6.47v-3.1c-.53.99-1.3,1.78-2.31,2.38-1.01.59-2.2.89-3.56.89-2.13,0-3.81-.71-5.03-2.13-1.22-1.42-1.83-3.36-1.83-5.82v-10.73h6.47v9.93c0,1.06.28,1.89.84,2.49.56.6,1.31.91,2.26.91s1.74-.31,2.31-.92c.57-.62.86-1.48.86-2.61v-9.8h6.47Z"/><path class="cls-2" d="m305.45,70.36c1.21,1.42,1.82,3.35,1.82,5.79v10.76h-6.43v-9.93c0-1.08-.28-1.92-.84-2.52-.56-.6-1.32-.91-2.26-.91s-1.74.31-2.31.94c-.57.63-.86,1.49-.86,2.59v9.83h-6.5v-18.51h6.5v3.1c.53-.99,1.3-1.78,2.31-2.38,1.01-.59,2.2-.89,3.56-.89,2.13,0,3.81.71,5.02,2.13Z"/><path class="cls-2" d="m321.75,81.36v5.54h-2.67c-2.27,0-4.04-.56-5.31-1.68-1.28-1.12-1.91-2.98-1.91-5.58v-5.84h-2.38v-5.41h2.38v-4.49h6.5v4.49h3.33v5.41h-3.33v5.97c0,.57.13.98.38,1.22.25.24.68.36,1.27.36h1.75Z"/><path class="cls-2" d="m333.96,69.22c1.1-.66,2.27-.99,3.5-.99v6.93h-1.88c-1.45,0-2.54.28-3.27.84-.73.56-1.09,1.53-1.09,2.92v7.99h-6.5v-18.51h6.5v3.47c.73-1.1,1.64-1.98,2.74-2.64Z"/><path class="cls-2" d="m340.13,60.88c.7-.63,1.63-.94,2.77-.94s2.06.31,2.74.94,1.02,1.42,1.02,2.39-.35,1.69-1.04,2.31c-.69.62-1.6.92-2.72.92s-2.07-.31-2.77-.92c-.7-.62-1.06-1.39-1.06-2.31s.35-1.77,1.06-2.39Zm5.97,7.51v18.51h-6.5v-18.51h6.5Z"/><path class="cls-2" d="m367.33,78.82h-12.24c.11,2.09,1.02,3.13,2.74,3.13.64,0,1.17-.15,1.58-.46.42-.31.7-.71.86-1.22h6.86c-.24,1.3-.78,2.47-1.62,3.51-.84,1.05-1.89,1.86-3.17,2.46-1.28.59-2.67.89-4.19.89-1.85,0-3.48-.38-4.9-1.14-1.42-.76-2.52-1.86-3.32-3.3-.79-1.44-1.19-3.13-1.19-5.07s.4-3.62,1.19-5.05,1.9-2.52,3.33-3.28c1.43-.76,3.06-1.14,4.88-1.14s3.48.37,4.88,1.12c1.41.75,2.5,1.81,3.28,3.2.78,1.39,1.17,2.99,1.17,4.82,0,.46-.06.97-.17,1.52Zm-7.19-4.85c-.53-.48-1.19-.73-1.98-.73-.86,0-1.56.24-2.1.73-.54.48-.85,1.2-.94,2.15h5.78c.02-.95-.23-1.66-.76-2.15Z"/><path class="cls-2" d="m382.97,69.94c1.45,1.19,2.37,2.76,2.74,4.72h-6.07c-.15-.66-.47-1.15-.94-1.48-.47-.33-1.05-.5-1.73-.5-.48,0-.85.1-1.11.31-.25.21-.38.5-.38.87,0,.46.27.81.81,1.04.54.23,1.42.49,2.66.78,1.43.31,2.61.64,3.55.99.94.35,1.75.92,2.44,1.72s1.04,1.86,1.04,3.2c0,1.08-.3,2.04-.89,2.87-.59.84-1.46,1.49-2.59,1.96-1.13.47-2.47.71-4.01.71-2.6,0-4.67-.56-6.2-1.68-1.54-1.12-2.48-2.73-2.81-4.82h6.24c.09.68.38,1.19.88,1.52s1.12.5,1.86.5c.51,0,.89-.11,1.16-.33.26-.22.4-.51.4-.86,0-.53-.28-.91-.84-1.16-.56-.24-1.46-.48-2.69-.73-1.41-.29-2.56-.6-3.46-.94-.9-.34-1.69-.89-2.36-1.65s-1.01-1.81-1.01-3.15c0-1.67.65-3.04,1.95-4.09,1.3-1.06,3.15-1.58,5.54-1.58s4.39.59,5.84,1.78Z"/><path class="cls-4" d="m198.89,103.07c.97.55,1.73,1.32,2.29,2.31.56.99.84,2.11.84,3.36s-.28,2.37-.84,3.37c-.56,1-1.32,1.77-2.29,2.32-.97.55-2.04.83-3.23.83s-2.27-.28-3.23-.83c-.97-.55-1.73-1.33-2.29-2.32-.56-1-.84-2.12-.84-3.37s.28-2.37.84-3.36c.56-.99,1.32-1.76,2.29-2.31.97-.55,2.04-.83,3.23-.83s2.26.28,3.23.83Zm-5.19,2.02c-.56.34-1.01.82-1.32,1.45-.32.63-.48,1.37-.48,2.21s.16,1.57.48,2.21c.32.63.76,1.11,1.32,1.45.56.34,1.22.5,1.96.5s1.4-.17,1.96-.5c.56-.34,1-.82,1.32-1.45.32-.63.48-1.37.48-2.21s-.16-1.58-.48-2.21c-.32-.63-.76-1.11-1.32-1.45-.56-.34-1.22-.5-1.96-.5s-1.4.17-1.96.5Z"/><path class="cls-4" d="m213.46,105.16v9.97h-2.54v-2.02c-.26.67-.7,1.2-1.3,1.58-.61.38-1.31.57-2.1.57-1.15,0-2.07-.38-2.75-1.13-.68-.76-1.03-1.81-1.03-3.17v-5.8h2.52v5.51c0,.79.2,1.41.61,1.84.41.44.96.66,1.66.66.73,0,1.31-.23,1.75-.7.43-.47.65-1.14.65-2.02v-5.29h2.54Z"/><path class="cls-4" d="m219.78,105.57c.61-.37,1.3-.55,2.05-.55v2.72h-.74c-1.86,0-2.79.86-2.79,2.59v4.81h-2.54v-9.97h2.54v1.91c.37-.64.86-1.14,1.48-1.5Z"/><path class="cls-4" d="m236.89,103.44c1.02.76,1.67,1.79,1.96,3.09h-2.66c-.25-.58-.65-1.04-1.2-1.38s-1.19-.51-1.93-.51-1.38.17-1.94.5c-.56.34-1,.82-1.31,1.44-.31.62-.47,1.36-.47,2.2,0,1.33.36,2.37,1.07,3.11.71.75,1.69,1.12,2.92,1.12.91,0,1.7-.27,2.35-.81.65-.54,1.08-1.29,1.27-2.25h-4.3v-1.82h6.43v2.45c-.18.84-.53,1.61-1.05,2.32-.52.71-1.21,1.27-2.05,1.7-.85.43-1.81.64-2.91.64-1.25,0-2.35-.27-3.3-.82s-1.69-1.31-2.21-2.29c-.52-.98-.78-2.1-.78-3.36s.26-2.38.78-3.36c.52-.98,1.26-1.74,2.21-2.29s2.05-.83,3.29-.83c1.55,0,2.83.38,3.85,1.14Z"/><path class="cls-4" d="m250.27,110.63h-7.31c.04.89.28,1.54.72,1.96s1,.63,1.66.63c.59,0,1.08-.14,1.47-.43s.64-.68.75-1.17h2.68c-.13.7-.41,1.32-.85,1.87-.43.55-.99.98-1.67,1.3s-1.43.47-2.26.47c-.97,0-1.84-.21-2.59-.62s-1.34-1-1.76-1.77c-.42-.77-.63-1.67-.63-2.72s.21-1.95.63-2.73,1.01-1.37,1.76-1.77c.76-.41,1.62-.61,2.59-.61s1.84.21,2.58.61c.74.41,1.31.97,1.71,1.68.4.71.6,1.53.6,2.44,0,.25-.03.54-.09.86Zm-3.1-2.97c-.46-.42-1.03-.63-1.7-.63s-1.26.21-1.73.63c-.47.42-.73,1.04-.77,1.85h4.84c.04-.82-.18-1.43-.64-1.85Z"/><path class="cls-4" d="m259.38,105.65c.77.41,1.38,1,1.83,1.77.44.77.67,1.68.67,2.73s-.22,1.95-.67,2.72c-.44.77-1.05,1.36-1.83,1.77-.77.41-1.65.62-2.62.62s-1.84-.21-2.62-.62c-.77-.41-1.38-1-1.83-1.77-.44-.77-.67-1.67-.67-2.72s.22-1.95.67-2.73c.44-.77,1.05-1.37,1.83-1.77.77-.41,1.65-.61,2.62-.61s1.84.21,2.62.61Zm-4.42,2.33c-.49.5-.74,1.22-.74,2.17s.25,1.67.74,2.17,1.09.75,1.8.75,1.31-.25,1.8-.75.74-1.22.74-2.17-.25-1.67-.74-2.17-1.09-.75-1.8-.75-1.31.25-1.8.75Z"/><path class="cls-4" d="m269.74,105.63c.6.4,1.03.93,1.28,1.6v-2.07h2.52v10.01c0,.92-.18,1.75-.55,2.49-.37.74-.91,1.32-1.64,1.74-.73.42-1.6.63-2.64.63-1.44,0-2.6-.34-3.49-1.03s-1.43-1.61-1.62-2.79h2.5c.14.5.42.9.84,1.18.41.28.95.42,1.59.42.74,0,1.34-.22,1.8-.66.46-.44.68-1.1.68-1.99v-2.12c-.25.67-.68,1.21-1.28,1.61-.6.4-1.32.6-2.16.6s-1.6-.2-2.27-.61c-.67-.41-1.2-1-1.58-1.77-.38-.77-.57-1.68-.57-2.73s.19-1.95.57-2.73.9-1.37,1.58-1.77c.67-.41,1.43-.61,2.27-.61s1.56.2,2.16.59Zm-3.28,2.39c-.48.52-.72,1.22-.72,2.12s.24,1.6.72,2.11c.48.51,1.12.76,1.91.76s1.4-.26,1.9-.78c.5-.52.75-1.22.75-2.1s-.25-1.59-.75-2.12c-.5-.52-1.13-.78-1.9-.78s-1.43.26-1.91.77Z"/><path class="cls-4" d="m279.86,105.57c.61-.37,1.3-.55,2.05-.55v2.72h-.74c-1.86,0-2.79.86-2.79,2.59v4.81h-2.54v-9.97h2.54v1.91c.37-.64.86-1.14,1.48-1.5Z"/><path class="cls-4" d="m289.38,105.63c.6.4,1.03.93,1.28,1.6v-2.07h2.52v9.97h-2.52v-2.09c-.25.67-.68,1.21-1.28,1.61-.6.4-1.32.6-2.16.6s-1.6-.2-2.27-.61c-.67-.41-1.2-1-1.58-1.77-.38-.77-.57-1.68-.57-2.73s.19-1.95.57-2.73.9-1.37,1.58-1.77c.67-.41,1.43-.61,2.27-.61s1.56.2,2.16.59Zm-3.28,2.39c-.48.52-.72,1.22-.72,2.12s.24,1.6.72,2.11c.48.51,1.12.76,1.91.76s1.4-.26,1.9-.78c.5-.52.75-1.22.75-2.1s-.25-1.59-.75-2.12c-.5-.52-1.13-.78-1.9-.78s-1.43.26-1.91.77Z"/><path class="cls-4" d="m303.71,105.65c.67.41,1.2,1,1.58,1.77s.57,1.68.57,2.73-.19,1.95-.57,2.73c-.38.77-.9,1.37-1.58,1.77-.67.41-1.43.61-2.27.61s-1.56-.2-2.15-.6c-.59-.4-1.02-.94-1.27-1.61v6.84h-2.54v-14.72h2.54v2.07c.25-.67.67-1.21,1.27-1.6.59-.4,1.31-.59,2.15-.59s1.6.21,2.27.61Zm-4.96,2.38c-.5.52-.75,1.23-.75,2.12s.25,1.57.75,2.1c.5.52,1.13.78,1.9.78s1.43-.25,1.91-.76c.48-.51.72-1.21.72-2.11s-.24-1.61-.72-2.12c-.48-.52-1.12-.77-1.91-.77s-1.4.26-1.9.78Z"/><path class="cls-4" d="m316.34,106.15c.68.76,1.03,1.82,1.03,3.19v5.8h-2.52v-5.51c0-.79-.2-1.41-.61-1.84-.41-.44-.97-.66-1.67-.66s-1.3.23-1.73.7c-.43.47-.65,1.14-.65,2.02v5.29h-2.54v-13.32h2.54v5.35c.26-.67.7-1.2,1.3-1.58.61-.38,1.3-.57,2.1-.57,1.15,0,2.07.38,2.75,1.13Z"/><path class="cls-4" d="m319.75,101.3c.29-.26.67-.39,1.13-.39s.85.13,1.13.39c.29.26.43.59.43,1s-.14.72-.43.98c-.29.26-.67.39-1.13.39s-.85-.13-1.13-.39c-.29-.26-.43-.58-.43-.98s.14-.74.43-1Zm2.39,3.86v9.97h-2.54v-9.97h2.54Z"/><path class="cls-4" d="m332.14,106.08c.86.7,1.4,1.64,1.61,2.84h-2.68c-.11-.53-.35-.95-.74-1.25-.38-.31-.87-.46-1.46-.46-.67,0-1.23.25-1.68.75s-.67,1.23-.67,2.19.22,1.69.67,2.19,1.01.75,1.68.75c.59,0,1.07-.15,1.46-.46.38-.31.63-.72.74-1.25h2.68c-.22,1.2-.75,2.15-1.61,2.84-.86.7-1.93,1.04-3.21,1.04-.97,0-1.84-.21-2.59-.62s-1.34-1-1.76-1.77c-.42-.77-.63-1.67-.63-2.72s.21-1.95.63-2.73,1.01-1.37,1.76-1.77c.76-.41,1.62-.61,2.59-.61,1.28,0,2.35.35,3.21,1.04Z"/><path class="cls-4" d="m341.62,105.63c.6.4,1.03.93,1.28,1.6v-2.07h2.52v9.97h-2.52v-2.09c-.25.67-.68,1.21-1.28,1.61-.6.4-1.32.6-2.16.6s-1.6-.2-2.27-.61c-.67-.41-1.2-1-1.58-1.77-.38-.77-.57-1.68-.57-2.73s.19-1.95.57-2.73.9-1.37,1.58-1.77c.67-.41,1.43-.61,2.27-.61s1.56.2,2.16.59Zm-3.28,2.39c-.48.52-.72,1.22-.72,2.12s.24,1.6.72,2.11c.48.51,1.12.76,1.91.76s1.4-.26,1.9-.78c.5-.52.75-1.22.75-2.1s-.25-1.59-.75-2.12c-.5-.52-1.13-.78-1.9-.78s-1.43.26-1.91.77Z"/><path class="cls-4" d="m350.26,101.81v13.32h-2.54v-13.32h2.54Z"/><path class="cls-4" d="m231.61,132.79v4.72h-2.54v-12.71h4.63c1.5,0,2.63.36,3.39,1.08.76.72,1.14,1.7,1.14,2.93s-.39,2.18-1.18,2.9-1.91,1.08-3.36,1.08h-2.09Zm4.05-3.98c0-.64-.17-1.12-.52-1.46-.35-.34-.92-.5-1.71-.5h-1.82v3.91h1.82c1.49,0,2.23-.65,2.23-1.94Z"/><path class="cls-4" d="m243.9,127.94c.61-.37,1.3-.55,2.05-.55v2.72h-.74c-1.86,0-2.79.86-2.79,2.59v4.81h-2.54v-9.97h2.54v1.91c.37-.63.86-1.14,1.48-1.5Z"/><path class="cls-4" d="m256.65,133.01h-7.31c.04.89.28,1.54.72,1.96.44.42,1,.63,1.66.63.59,0,1.08-.14,1.47-.43.39-.29.64-.68.75-1.17h2.68c-.13.7-.41,1.32-.85,1.87-.43.55-.99.98-1.67,1.3-.68.31-1.43.47-2.26.47-.97,0-1.84-.21-2.59-.62s-1.34-1-1.76-1.77-.63-1.67-.63-2.72.21-1.95.63-2.73,1.01-1.37,1.76-1.77,1.62-.61,2.59-.61,1.85.2,2.58.61c.74.41,1.31.97,1.71,1.68.4.71.6,1.53.6,2.44,0,.25-.03.54-.09.86Zm-3.11-2.97c-.46-.42-1.03-.63-1.7-.63s-1.26.21-1.73.63c-.47.42-.73,1.04-.77,1.85h4.84c.04-.82-.18-1.43-.64-1.85Z"/><path class="cls-4" d="m264.89,128.33c.73.61,1.19,1.43,1.37,2.45h-2.38c-.1-.48-.31-.86-.65-1.15-.34-.29-.77-.43-1.31-.43-.43,0-.77.1-1.01.31s-.36.48-.36.83c0,.28.1.5.29.67s.43.3.72.4c.29.1.7.21,1.24.34.76.17,1.37.34,1.85.53.47.19.88.48,1.22.88s.51.95.51,1.63c0,.85-.33,1.54-1,2.07-.67.53-1.56.79-2.69.79-1.3,0-2.33-.29-3.11-.87s-1.25-1.41-1.42-2.49h2.43c.06.49.28.88.65,1.16.37.28.86.42,1.46.42.43,0,.76-.1.99-.31.23-.21.34-.48.34-.82,0-.29-.1-.52-.3-.7-.2-.18-.44-.32-.74-.41-.29-.1-.71-.21-1.25-.34-.74-.17-1.35-.34-1.81-.51-.46-.17-.86-.45-1.19-.84-.33-.38-.5-.91-.5-1.58,0-.86.33-1.57.99-2.11.66-.54,1.57-.81,2.74-.81s2.18.31,2.92.92Z"/><path class="cls-4" d="m277.56,133.01h-7.31c.04.89.28,1.54.72,1.96.44.42,1,.63,1.66.63.59,0,1.08-.14,1.47-.43s.64-.68.75-1.17h2.68c-.13.7-.41,1.32-.85,1.87-.43.55-.99.98-1.67,1.3s-1.43.47-2.26.47c-.97,0-1.84-.21-2.59-.62s-1.34-1-1.76-1.77-.63-1.67-.63-2.72.21-1.95.63-2.73,1.01-1.37,1.76-1.77,1.62-.61,2.59-.61,1.84.2,2.58.61,1.31.97,1.71,1.68.6,1.53.6,2.44c0,.25-.03.54-.09.86Zm-3.1-2.97c-.46-.42-1.03-.63-1.7-.63s-1.26.21-1.73.63c-.47.42-.73,1.04-.77,1.85h4.84c.04-.82-.18-1.43-.64-1.85Z"/><path class="cls-4" d="m288.15,128.53c.68.76,1.03,1.82,1.03,3.19v5.8h-2.52v-5.51c0-.79-.2-1.41-.61-1.85-.41-.44-.97-.66-1.67-.66s-1.3.23-1.73.7c-.43.47-.65,1.14-.65,2.02v5.29h-2.54v-9.97h2.54v2c.26-.67.7-1.2,1.31-1.57.61-.38,1.3-.57,2.1-.57,1.15,0,2.07.38,2.75,1.13Z"/><path class="cls-4" d="m299.1,128.46c.86.7,1.39,1.64,1.61,2.84h-2.68c-.11-.53-.35-.94-.74-1.25s-.87-.46-1.46-.46c-.67,0-1.23.25-1.68.75s-.67,1.23-.67,2.19.22,1.69.67,2.19,1.01.75,1.68.75c.59,0,1.07-.15,1.46-.46.38-.3.63-.72.74-1.25h2.68c-.22,1.2-.75,2.15-1.61,2.84-.86.7-1.93,1.04-3.21,1.04-.97,0-1.84-.21-2.59-.62s-1.34-1-1.76-1.77-.63-1.67-.63-2.72.21-1.95.63-2.73,1.01-1.37,1.76-1.77,1.62-.61,2.59-.61c1.28,0,2.36.35,3.21,1.04Z"/><path class="cls-4" d="m311.8,133.01h-7.31c.04.89.28,1.54.72,1.96.44.42,1,.63,1.66.63.59,0,1.08-.14,1.47-.43s.64-.68.75-1.17h2.68c-.13.7-.41,1.32-.85,1.87-.43.55-.99.98-1.67,1.3s-1.43.47-2.26.47c-.97,0-1.84-.21-2.59-.62s-1.34-1-1.76-1.77-.63-1.67-.63-2.72.21-1.95.63-2.73,1.01-1.37,1.76-1.77,1.62-.61,2.59-.61,1.84.2,2.58.61,1.31.97,1.71,1.68.6,1.53.6,2.44c0,.25-.03.54-.09.86Zm-3.1-2.97c-.46-.42-1.03-.63-1.7-.63s-1.26.21-1.73.63c-.47.42-.73,1.04-.77,1.85h4.84c.04-.82-.18-1.43-.64-1.85Z"/><path class="cls-1" d="m103.65,62.68c-13.8,0-24.99,11.19-24.99,24.99,0,5.24,1.61,10.09,4.36,14.11l20.63,30.1,20.63-30.1c2.75-4.02,4.36-8.87,4.36-14.11,0-13.8-11.19-24.99-24.99-24.99Zm0,36.52c-6.37,0-11.53-5.16-11.53-11.53s5.16-11.53,11.53-11.53,11.53,5.16,11.53,11.53-5.16,11.53-11.53,11.53Z"/></svg>