<?xml version="1.0" encoding="UTF-8"?>
<svg xmlns="http://www.w3.org/2000/svg" xmlns:xlink="http://www.w3.org/1999/xlink" width="30px" height="30px" viewBox="0 0 30 30" version="1.1">
<g id="surface1">
<path style=" stroke:none;fill-rule:nonzero;fill:rgb(100%,100%,100%);fill-opacity:1;" d="M 15 1.710938 C 22.328125 1.710938 28.289062 7.671875 28.289062 15 C 28.289062 22.328125 22.328125 28.289062 15 28.289062 C 7.671875 28.289062 1.710938 22.328125 1.710938 15 C 1.710938 7.671875 7.671875 1.710938 15 1.710938 M 15 0 C 6.71875 0 0 6.71875 0 15 C 0 23.28125 6.71875 30 15 30 C 23.28125 30 30 23.28125 30 15 C 30 6.71875 23.28125 0 15 0 Z M 15 0 "/>
<path style=" stroke:none;fill-rule:evenodd;fill:rgb(100%,100%,100%);fill-opacity:1;" d="M 17.558594 19.511719 C 17.460938 19.371094 11.550781 11.25 11.019531 10.511719 L 12.640625 10.511719 C 13.078125 11.128906 17.789062 17.609375 19.140625 19.511719 Z M 8.519531 20.71875 L 10.210938 20.71875 C 11.058594 19.828125 12.988281 17.808594 14 16.761719 C 14.460938 17.421875 15.898438 19.289062 16.890625 20.71875 C 17.039062 20.71875 21.160156 20.71875 21.488281 20.71875 C 20.808594 19.761719 17.449219 15.359375 16.550781 14.089844 C 17.910156 12.660156 19.648438 10.851562 21.148438 9.28125 C 21.019531 9.28125 19.46875 9.28125 19.46875 9.28125 C 19.25 9.511719 16.601562 12.289062 15.910156 13 C 15.578125 12.539062 13.300781 9.351562 13.25 9.28125 L 8.75 9.28125 C 9.148438 9.839844 12.820312 14.988281 13.320312 15.699219 C 12.941406 16.101562 9.121094 20.078125 8.53125 20.710938 Z M 8.519531 20.71875 "/>
</g>
</svg>
