<?xml version="1.0" encoding="UTF-8"?><svg id="Capa_1" xmlns="http://www.w3.org/2000/svg" viewBox="0 0 312.08 312.08"><defs><style>.cls-1{fill:none;stroke:#f58220;stroke-linejoin:round;stroke-width:8px;}</style></defs><g><path class="cls-1" d="M256.38,154.72c4.75,49.77-36.78,83.59-62.59,104.94-20.73,17.14-61,27.17-70.44,21.53-2.37-2.37,15.94-29.17,23.25-45.95"/><path class="cls-1" d="M160.8,58.52c-45.25,1.16-85.31,38.88-105.21,62.94-17.14,20.73-27.16,61-21.53,70.44,2.37,2.37,29.17-15.94,45.95-23.25"/><path class="cls-1" d="M145.28,236.41c-4.15,1.77-9.92,4.62-11.79,4.56-8.53-.23-57.88-48.44-58.79-58.79-.21-2.33,2.8-7.64,4.56-11.79l66.02,66.02Z"/><path class="cls-1" d="M79.96,168.59c9.58-27.84,44.94-74.6,74.1-103.76C210.84,8.05,305.02,10.17,305.02,10.17c0,0,2.12,94.18-54.66,150.96-29.16,29.16-75.91,64.53-103.76,74.1l-66.64-66.64Z"/><path class="cls-1" d="M189.58,72.11c-14.78,14.78-14.78,38.73,0,53.51,14.78,14.78,38.74,14.78,53.51,0,14.78-14.78,14.78-38.74,0-53.51-14.78-14.78-38.73-14.77-53.51,0Z"/></g><g><path class="cls-1" d="M92.25,268.36c-2.89,2.88-6.37,5.57-8.43,6.97-4.17,2.83-7.1,6.03-9.68,10.38-.69-2.2-.37-4.43,.48-6.55-4.95,2.62-9.34,5.76-11.71,12.11,.28-.72-3.32-5.88-3.67-7.03-.84-2.78-.43-5.05,1.06-7.45-4.96,.22-9.24,6.29-13.24,8.77-12.44,7.7-27.78,8.51-40.03,16.36,6.4-4.73,11.4-8.85,15.83-15.83,4.66-7.32,7.94-15.81,11.04-23.95,.96-2.54,1.27-5.12,1.61-7.7-1.08,.83-2.21,1.61-3.4,2.27-1.94,1.08-4.13,2.09-6.38,2.23-1.53,.1-5.17-1.42-6.45-.64,1.91-1.16,4.13-1.7,5.96-2.99,2.18-1.54,3.92-3.91,5.29-6.17,4.42-7.29,7.61-13.87,11.14-19.36,.09-.16,.17-.31,.26-.46,.09-.13,.2-.25,.29-.37,4.11-6.2,8.8-10.94,16.48-13.68h0c11.46-4.44,24.96-2.04,34.22,7.21,12.5,12.5,12.5,32.76,0,45.25-.22,.22-.45,.43-.68,.64Z"/><path class="cls-1" d="M91.6,250.2c-1.7,1.68-3.73,3.25-4.94,4.08-2.44,1.66-4.15,3.53-5.66,6.07-.4-1.29-.22-2.6,.29-3.84-2.89,1.54-5.46,3.37-6.86,7.09,.16-.42-1.94-3.44-2.15-4.12-.49-1.62-.25-2.95,.62-4.36-2.9,.13-5.41,3.69-7.74,5.13-7.28,4.51-17.02,8.29-24.18,12.88,3.75-2.77,9.56-10.19,12.16-14.27,2.73-4.29,3.58-7.44,4.32-12.31,.24-1.57,.75-2.99,.94-4.5-.64,.48-1.3,.94-2,1.33-1.13,.63-2.42,1.22-3.73,1.31-.89,.06-3.03-.83-3.77-.38,1.12-.67,2.42-1,3.49-1.75,1.28-.9,2.29-2.29,3.09-3.61,2.59-4.27,4.45-8.11,6.52-11.33,.05-.09,.1-.18,.15-.27,.05-.08,.11-.15,.17-.22,2.41-3.63,5.15-6.4,9.64-8.01h0c6.71-2.6,14.61-1.19,20.02,4.22,7.31,7.31,7.32,19.17,0,26.48-.13,.13-.26,.25-.39,.38Z"/></g></svg>